<?xml version="1.0" encoding="utf-8"?>
<svg id="master-artboard" viewBox="0 0 1400 980" version="1.1" xmlns="http://www.w3.org/2000/svg" x="0px" y="0px" style="enable-background:new 0 0 1400 980;" width="1400px" height="980px">

<path d="M 0 0 H 1400 V 980 H 0 V 0 Z" class="st0" style="fill: rgb(255, 255, 255);" transform="matrix(1, 0, 0, 1, 2.842170943040401e-14, 7.105427357601002e-15)"/>
<linearGradient id="SVGID_1_" gradientUnits="userSpaceOnUse" x1="1285.4323" y1="764.1498" x2="856.4323" y2="440.1498">
		<stop offset="0" style="stop-color:#FFFFFF;stop-opacity:0"/>
		<stop offset="1" style="stop-color:#000000"/>
	</linearGradient><path d="M 1146.199951171875 88.5999984741211 L 1385 501.8999938964844 L 1157.0999755859375 980 L 816 980 L 720.2999877929688 771.9000244140625 Z" class="st1" style="opacity: 0.3; fill: url('#SVGID_1_');" transform="matrix(1, 0, 0, 1, 2.842170943040401e-14, 7.105427357601002e-15)"/><linearGradient id="SVGID_2_" gradientUnits="userSpaceOnUse" x1="630.475" y1="674.75" x2="540.475" y2="611.75">
		<stop offset="0" style="stop-color:#FFFFFF;stop-opacity:0"/>
		<stop offset="1" style="stop-color:#000000"/>
	</linearGradient><path d="M 522.7000122070312 490 L 656.4000244140625 683.5999755859375 L 578.0999755859375 747.4000244140625 L 525.0999755859375 679.5999755859375 Z" class="st2" style="opacity: 0.3; fill: url('#SVGID_2_');" transform="matrix(1, 0, 0, 1, 2.842170943040401e-14, 7.105427357601002e-15)"/><linearGradient id="SVGID_3_" gradientUnits="userSpaceOnUse" x1="417.5263" y1="599.5916" x2="321.5263" y2="548.2582">
		<stop offset="0" style="stop-color:#FFFFFF;stop-opacity:0"/>
		<stop offset="1" style="stop-color:#000000"/>
	</linearGradient><path d="M 392.29998779296875 399.5 L 477 501.8999938964844 L 355.5 753 L 266.1000061035156 631.4000244140625 Z" class="st3" style="opacity: 0.3; fill: url('#SVGID_3_');" transform="matrix(1, 0, 0, 1, 2.842170943040401e-14, 7.105427357601002e-15)"/><linearGradient id="SVGID_4_" gradientUnits="userSpaceOnUse" x1="284.0594" y1="247.3083" x2="242.0594" y2="218.6416">
		<stop offset="0" style="stop-color:#FFFFFF;stop-opacity:0"/>
		<stop offset="1" style="stop-color:#000000"/>
	</linearGradient><path d="M 189.60000610351562 102.69999694824219 L 312.1000061035156 232.5 L 233.6999969482422 293 L 135.5 178.5 Z" class="st4" style="opacity: 0.3; fill: url('#SVGID_4_');" transform="matrix(1, 0, 0, 1, 2.842170943040401e-14, 7.105427357601002e-15)"/><linearGradient id="SVGID_5_" gradientUnits="userSpaceOnUse" x1="400.552" y1="303.352" x2="378.552" y2="275.352">
		<stop offset="0" style="stop-color:#FFFFFF;stop-opacity:0"/>
		<stop offset="1" style="stop-color:#000000"/>
	</linearGradient><path d="M 135.5 416.6000061035156 L 181.89999389648438 482.20001220703125 L 616.2999877929688 123.30000305175781 L 578.0999755859375 72.0999984741211 Z" class="st5" style="opacity: 0.3; fill: url('#SVGID_5_');" transform="matrix(1, 0, 0, 1, 2.842170943040401e-14, 7.105427357601002e-15)"/><path d="M 369.79998779296875 408.3999938964844 L 378.20001220703125 385.79998779296875 L 392.29998779296875 399.5 L 386.1000061035156 416.3999938964844 Z" class="st6" style="fill: rgb(252, 243, 42);" transform="matrix(1, 0, 0, 1, 5.684341886080802e-14, 1.4210854715202004e-14)"/><path class="st7" d="M389.4,413.2l-10.3-3.8l-10.3-3.8c0,0-11.5,26.3-50.9,34.9L261.5,622c-1.2,3.8,0.8,8,4.6,9.4l27.3,10.1&#10;&#9;&#9;&#9;l27.3,10.1c3.8,1.4,8-0.4,9.6-4.1l75.1-174.6C381,440.7,389.4,413.2,389.4,413.2z" style="fill: rgb(237, 100, 87);" transform="matrix(1, 0, 0, 1, 5.684341886080802e-14, 1.4210854715202004e-14)"/><path class="st8" d="M321.8,462.6l-4.5,2.6c0,0-48.7,157.9-50.2,162c-0.6,1.6,8.3,6.4,19.3,11.8l7,2.6l27.3,10.1&#10;&#9;&#9;&#9;c3.8,1.4,8-0.4,9.6-4.1l69.8-162.3L321.8,462.6z" style="fill: rgb(204, 66, 59);" transform="matrix(1, 0, 0, 1, 5.684341886080802e-14, 1.4210854715202004e-14)"/><path class="st9" d="M389.4,413.2l-10.3-3.8l-10.3-3.8c0,0-11.5,26.3-50.9,34.9l-5.7,18.5l85.7,31.6l7.6-17.8&#10;&#9;&#9;&#9;C381,440.7,389.4,413.2,389.4,413.2z" style="fill: rgb(9, 141, 175);" transform="matrix(1, 0, 0, 1, 5.684341886080802e-14, 1.4210854715202004e-14)"/><path class="st10" d="M405.4,472.8c-24.4-32.1-16-59.6-16-59.6l-10.3-3.8l-4.5-1.6c-2.7,4.8-7.9,14.1-12.2,21.9&#10;&#9;&#9;&#9;c-6.2,11-17,19-17,19l19.6,10.7l-41.5-15.3l-6.2,16.8l80.5,29.7L405.4,472.8z" style="fill: rgb(3, 104, 127);" transform="matrix(1, 0, 0, 1, 5.684341886080802e-14, 1.4210854715202004e-14)"/><path class="st11" d="M518.1,490.8l-63.1,31.4c-3.6,1.8-5,6.1-3.3,9.7l73.4,147.8c1.8,3.6,6.1,5,9.7,3.3l63.1-31.4&#10;&#9;&#9;&#9;c3.6-1.8,5-6.1,3.3-9.7L527.8,494C526,490.4,521.6,489,518.1,490.8z" style="fill: rgb(233, 99, 98);" transform="matrix(1, 0, 0, 1, 5.684341886080802e-14, 1.4210854715202004e-14)"/><path class="st12" d="M532.1,679.2c0.6,1.1,3,1.7,6.6,1.8l59.3-29.5c3.6-1.8,5-6.1,3.3-9.7l-69.5-139.9c0,0-44.8,46.9-60.5,54.6&#10;&#9;&#9;&#9;C471.2,556.5,530.2,675.3,532.1,679.2z" style="fill: rgb(211, 79, 79);" transform="matrix(1, 0, 0, 1, 5.684341886080802e-14, 1.4210854715202004e-14)"/><path class="st13" d="M518.1,490.8l-63.1,31.4c-3.6,1.8-5,6.1-3.3,9.7l8.7,17.5c1.8,3.6,6.1,5,9.7,3.3l63.1-31.4&#10;&#9;&#9;&#9;c3.6-1.8,5-6.1,3.3-9.7l-8.7-17.5C526,490.4,521.6,489,518.1,490.8z" style="fill: rgb(244, 130, 130);" transform="matrix(1, 0, 0, 1, 5.684341886080802e-14, 1.4210854715202004e-14)"/><path class="st14" d="M500.4,629.9l24.7,49.7c1.8,3.6,6.1,5,9.7,3.3l63.1-31.4c3.6-1.8,5-6.1,3.3-9.7l-24.7-49.7L500.4,629.9z" style="fill: rgb(35, 147, 167);" transform="matrix(1, 0, 0, 1, 5.684341886080802e-14, 1.4210854715202004e-14)"/><path class="st15" d="M601.2,641.8l-24.7-49.7L506.2,627c13.1,26.4,25.1,50.4,25.9,52.2c0.6,1.1,3,1.7,6.6,1.8l59.3-29.5&#10;&#9;&#9;&#9;C601.5,649.7,603,645.4,601.2,641.8z" style="fill: rgb(26, 120, 132);" transform="matrix(1, 0, 0, 1, 5.684341886080802e-14, 1.4210854715202004e-14)"/><path d="M 496.399994 608.099976 H 581.399994 V 615.599976 H 496.399994 V 608.099976 Z" transform="matrix(0.8955000042915344, -0.44509997963905334, 0.44509997963905334, 0.8955000042915344, -216.02430725097653, 303.81079101562506)" class="st16" style="fill: rgb(244, 250, 250);"/><path class="st17" d="M217.6,144.2c-6-6.9-9.2-14.6-8.9-19.8L191,103.9c-2.1-2.4-5.8-2.7-8.2-0.6l-59.8,51.6&#10;&#9;&#9;&#9;c-2.4,2.1-2.7,5.8-0.6,8.2l17.6,20.5c5.2,0.5,12.3,4.8,18.3,11.7c6,6.9,9.2,14.6,8.9,19.8l40.6,47.1c2.1,2.4,5.8,2.7,8.2,0.6&#10;&#9;&#9;&#9;l59.8-51.6c2.4-2.1,2.7-5.8,0.6-8.2l-40.6-47.1C230.6,155.5,223.5,151.1,217.6,144.2z" style="fill: rgb(53, 168, 183);" transform="matrix(1, 0, 0, 1, 5.684341886080802e-14, 1.4210854715202004e-14)"/><path class="st18" d="M276.4,203l-40.6-47.1c-5.2-0.5-12.3-4.8-18.3-11.7c-6-6.9-9.2-14.6-8.9-19.8L191,103.9&#10;&#9;&#9;&#9;c-0.4-0.5-0.9-0.9-1.4-1.2l-58.9,50.8c-2.4,2.1-2.7,5.8-0.6,8.2l17.6,20.5c5.2,0.5,12.3,4.8,18.3,11.7c6,6.9,9.2,14.6,8.9,19.8&#10;&#9;&#9;&#9;l40.6,47.1c0.4,0.5,0.9,0.9,1.4,1.2l58.9-50.8C278.3,209.1,278.5,205.5,276.4,203z" style="fill: rgb(36, 145, 165);" transform="matrix(1, 0, 0, 1, 5.684341886080802e-14, 1.4210854715202004e-14)"/><path class="st19" d="M166.6,143.2L166.6,143.2c-6.7,5.7-7.4,15.8-1.7,22.4l56.8,65.9c1,1.2,2.7,1.3,3.9,0.3l19.9-17.2&#10;&#9;&#9;&#9;c1.2-1,1.3-2.7,0.3-3.9L189,144.9C183.3,138.2,173.2,137.5,166.6,143.2z" style="fill: rgb(17, 103, 114);" transform="matrix(1, 0, 0, 1, 5.684341886080802e-14, 1.4210854715202004e-14)"/><path class="st20" d="M168.4,141.9c-0.6,0.4-1.2,0.8-1.8,1.3l0,0c-6.7,5.7-7.4,15.8-1.7,22.4l56.8,65.9c1,1.2,2.7,1.3,3.9,0.3&#10;&#9;&#9;&#9;l11.6-10L168.4,141.9z" style="fill: rgb(212, 212, 210);" transform="matrix(1, 0, 0, 1, 5.684341886080802e-14, 1.4210854715202004e-14)"/><path class="st21" d="M166.6,143.2c-0.9,0.7-1.6,1.6-2.3,2.4l68.8,79.8l4.2-3.6l-68.9-79.9C167.7,142.3,167.1,142.8,166.6,143.2&#10;&#9;&#9;&#9;L166.6,143.2z" style="fill: rgb(234, 234, 234);" transform="matrix(1, 0, 0, 1, 5.684341886080802e-14, 1.4210854715202004e-14)"/><path d="M 198.199994 188.600006 A 5.3 5.3 0 0 1 192.899994 193.900006 A 5.3 5.3 0 0 1 187.599994 188.600006 A 5.3 5.3 0 0 1 192.899994 183.300006 A 5.3 5.3 0 0 1 198.199994 188.600006 Z" transform="matrix(0.7574000358581543, -0.6530000567436218, 0.6530000567436218, 0.7574000358581543, -76.37899780273433, 171.72610473632812)" class="st19" style="fill: rgb(17, 103, 114);"/><g transform="matrix(1, 0, 0, 1, 5.684341886080802e-14, 1.4210854715202004e-14)">
			<path d="M 578.0999755859375 72.0999984741211 L 477.79998779296875 119 L 467.3999938964844 127.5999984741211 L 472.1000061035156 159.3000030517578 L 494.3999938964844 172.1999969482422 L 512.7999877929688 161.5 Z" class="st22" style="fill: rgb(229, 181, 133);"/>
			<path class="st23" d="M474.8,160.3l22.5,8l15.5-6.8l65.3-89.4C578.1,72.1,506.7,138.9,474.8,160.3z" style="fill: rgb(226, 163, 92);"/>
			<path class="st24" d="M484.7,149c-3.7-4.5-2.9-11.6,1.5-17.6L208.8,359.6l16.1,19.5l277.3-228.2&#10;&#9;&#9;&#9;&#9;C495.5,154.1,488.4,153.5,484.7,149z" style="fill: rgb(61, 127, 116);"/>
			<path class="st25" d="M503,159c-1.7-2.1-2.2-4.8-1.6-7.4L224.9,379.1l9.4,11.5l278.5-229.1C509.2,162.7,505.3,161.8,503,159z" style="fill: rgb(48, 111, 104);"/>
			<path class="st26" d="M478.3,129.1c1.7,2.1,4.3,3.1,7,3L208.8,359.6l-9.4-11.5L477.8,119C476,122.3,476,126.3,478.3,129.1z" style="fill: rgb(73, 142, 130);"/>
			<path d="M 556.2999877929688 101.9000015258789 L 578.0999755859375 72.0999984741211 L 544.7000122070312 87.69999694824219 Z" class="st27" style="fill: rgb(40, 45, 51);"/>
		</g><path d="M 181.399994 367.5 H 244.399994 V 377.8 H 181.399994 V 367.5 Z" transform="matrix(0.6352999806404114, 0.7721999287605286, -0.7721999287605286, 0.6352999806404114, 365.34750366210943, -28.527700424194325)" class="st28" style="fill: rgb(216, 61, 73);"/><path d="M 213.300003 382.5 H 237.300003 V 392.8 H 213.300003 V 382.5 Z" transform="matrix(0.6352999806404114, 0.7721999287605286, -0.7721999287605286, 0.6352999806404114, 381.49411010742193, -32.603698730468736)" class="st29" style="fill: rgb(200, 37, 44);"/><path d="M 167.699997 370 H 225.699997 V 401.799999 H 167.699997 V 370 Z" transform="matrix(0.6352999806404114, 0.7721999287605286, -0.7721999287605286, 0.6352999806404114, 369.7369995117188, -11.139100074768052)" class="st30" style="fill: rgb(242, 201, 165);"/><path d="M 200.399994 385.5 H 218.399994 V 417.299999 H 200.399994 V 385.5 Z" transform="matrix(0.6352999806404114, 0.7721999287605286, -0.7721999287605286, 0.6352999806404114, 386.29760742187506, -15.319499969482408)" class="st22" style="fill: rgb(229, 181, 133);"/><path class="st31" d="M165.9,378.7l-29,23.9c-4.3,3.5-4.9,9.8-1.4,14.1l19.3,23.4c3.5,4.3,9.8,4.9,14.1,1.4l29-23.9L165.9,378.7z" style="fill: rgb(226, 116, 135);" transform="matrix(1, 0, 0, 1, 5.684341886080802e-14, 1.4210854715202004e-14)"/><path class="st32" d="M172.2,387.7l-29,23.9c-3.2,2.6-4.3,6.8-3.3,10.5l14.8,18c3.5,4.3,9.8,4.9,14.1,1.4l28.3-23.3L172.2,387.7z" style="fill: rgb(221, 82, 99);" transform="matrix(1, 0, 0, 1, 5.684341886080802e-14, 1.4210854715202004e-14)"/><path d="M 150.399994 393 H 213.399994 V 403.3 H 150.399994 V 393 Z" transform="matrix(0.6352999806404114, 0.7721999287605286, -0.7721999287605286, 0.6352999806404114, 373.74328613281256, 4.7315001487732005)" class="st28" style="fill: rgb(216, 61, 73);"/><path d="M 182.300003 408 H 206.300003 V 418.3 H 182.300003 V 408 Z" transform="matrix(0.6352999806404114, 0.7721999287605286, -0.7721999287605286, 0.6352999806404114, 389.88989257812506, 0.6555000543594502)" class="st29" style="fill: rgb(200, 37, 44);"/><path d="M 1131.699951 646.599976 H 1159.99995 V 716.599976 H 1131.699951 V 646.599976 Z" transform="matrix(0.9904000163078308, -0.13809999823570251, 0.13809999823570251, 0.9904000163078308, -83.14230346679683, 164.75559997558594)" class="st33" style="fill: rgb(160, 31, 58);"/><path class="st34" d="M726.5,715.6c-8.8,1.2-14.9,9.3-13.6,18.1l4.3,30.8c1.2,8.8,9.3,14.9,18.1,13.6l415.6-57.9l-8.7-62.5&#10;&#9;&#9;&#9;L726.5,715.6z" style="fill: rgb(216, 214, 214);" transform="matrix(1, 0, 0, 1, 5.684341886080802e-14, 1.4210854715202004e-14)"/><path class="st35" d="M652.3,183.2c-10.8,1.5-18.4,11.6-16.9,22.4l73.7,528.5l7.6-1.1c-0.9-6.7,3.7-12.8,10.4-13.7l430-60&#10;&#9;&#9;&#9;l-74.7-536.1L652.3,183.2z" style="fill: rgb(206, 60, 99);" transform="matrix(1, 0, 0, 1, 5.684341886080802e-14, 1.4210854715202004e-14)"/><path class="st36" d="M1157.1,659.4l-73.3-525.5l-410.3,57.2c-10.8,1.5-18.4,11.6-16.9,22.4l70.5,505.9L1157.1,659.4z" style="fill: rgb(178, 32, 64);" transform="matrix(1, 0, 0, 1, 5.684341886080802e-14, 1.4210854715202004e-14)"/><path class="st37" d="M1165.8,721.9l-430,60c-10.8,1.5-20.9-6.1-22.4-16.9l-4.3-30.8c-1.5-10.8,6.1-20.9,16.9-22.4l430-60&#10;&#9;&#9;&#9;&#9;l1.1,7.6l-430,60c-6.7,0.9-11.3,7.1-10.4,13.7l4.3,30.8c0.9,6.7,7.1,11.3,13.7,10.4l430-60L1165.8,721.9z" style="fill: rgb(142, 23, 43);" transform="matrix(1, 0, 0, 1, 8.526512829121202e-14, 2.1316282072803006e-14)"/><path class="st34" d="M961.2,266.8l-172.8,24.1c-18.8,2.6-32,20-29.3,38.9L764,365c2.6,18.8,20,32,38.9,29.3l172.8-24.1&#10;&#9;&#9;&#9;&#9;c18.8-2.6,32-20,29.3-38.9l-4.9-35.2C997.4,277.4,980,264.2,961.2,266.8z" style="fill: rgb(216, 214, 214);" transform="matrix(1, 0, 0, 1, 8.526512829121202e-14, 2.1316282072803006e-14)"/><path d="M 784.400024 427.899994 H 1007.800018 V 436.099994 H 784.400024 V 427.899994 Z" transform="matrix(0.9904000163078308, -0.13809999823570251, 0.13809999823570251, 0.9904000163078308, -51.0727996826171, 127.88349914550781)" class="st34" style="fill: rgb(216, 214, 214);"/><path d="M 790.5 471.700012 H 1013.899994 V 479.900012 H 790.5 V 471.700012 Z" transform="matrix(0.9904000163078308, -0.13809999823570251, 0.13809999823570251, 0.9904000163078308, -57.05289840698234, 129.14430236816406)" class="st34" style="fill: rgb(216, 214, 214);"/><path d="M 1195.599976 612 H 1223.899975 V 682 H 1195.599976 V 612 Z" transform="matrix(0.9904000163078308, -0.13809999823570251, 0.13809999823570251, 0.9904000163078308, -77.74810028076168, 173.25169372558594)" class="st38" style="fill: rgb(57, 83, 109);"/><path class="st34" d="M790.4,680.9c-8.8,1.2-14.9,9.3-13.6,18.1l4.3,30.8c1.2,8.8,9.3,14.9,18.1,13.6l415.6-57.9l-8.7-62.5&#10;&#9;&#9;&#9;L790.4,680.9z" style="fill: rgb(216, 214, 214);" transform="matrix(1, 0, 0, 1, 5.684341886080802e-14, 1.4210854715202004e-14)"/><path class="st39" d="M716.2,148.6c-10.8,1.5-18.4,11.6-16.9,22.4L773,699.5l7.6-1.1c-0.9-6.7,3.7-12.8,10.4-13.7l430-60&#10;&#9;&#9;&#9;l-74.7-536.1L716.2,148.6z" style="fill: rgb(100, 127, 153);" transform="matrix(1, 0, 0, 1, 5.684341886080802e-14, 1.4210854715202004e-14)"/><path class="st40" d="M1221,624.8l-73.3-525.5l-410.3,57.2c-10.8,1.5-18.4,11.6-16.9,22.4L791,684.7L1221,624.8z" style="fill: rgb(74, 98, 132);" transform="matrix(1, 0, 0, 1, 5.684341886080802e-14, 1.4210854715202004e-14)"/><path class="st41" d="M1229.7,687.3l-430,60c-10.8,1.5-20.9-6.1-22.4-16.9l-4.3-30.8c-1.5-10.8,6.1-20.9,16.9-22.4l430-60&#10;&#9;&#9;&#9;&#9;l1.1,7.6l-430,60c-6.7,0.9-11.3,7.1-10.4,13.7l4.3,30.8c0.9,6.7,7.1,11.3,13.7,10.4l430-60L1229.7,687.3z" style="fill: rgb(46, 69, 96);" transform="matrix(1, 0, 0, 1, 8.526512829121202e-14, 2.1316282072803006e-14)"/><path class="st34" d="M1025.1,232.2l-172.8,24.1c-18.8,2.6-32,20-29.3,38.9l4.9,35.2c2.6,18.8,20,32,38.9,29.3l172.8-24.1&#10;&#9;&#9;&#9;&#9;c18.8-2.6,32-20,29.3-38.9l-4.9-35.2C1061.3,242.7,1043.9,229.6,1025.1,232.2z" style="fill: rgb(216, 214, 214);" transform="matrix(1, 0, 0, 1, 8.526512829121202e-14, 2.1316282072803006e-14)"/><path d="M 848.400024 393.299988 H 1071.800018 V 401.499988 H 848.400024 V 393.299988 Z" transform="matrix(0.9904000163078308, -0.13809999823570251, 0.13809999823570251, 0.9904000163078308, -45.67860031127921, 136.37950134277344)" class="st34" style="fill: rgb(216, 214, 214);"/><path d="M 854.5 437 H 1077.899994 V 445.2 H 854.5 V 437 Z" transform="matrix(0.9904000163078308, -0.13809999823570251, 0.13809999823570251, 0.9904000163078308, -51.658699035644446, 137.64039611816406)" class="st34" style="fill: rgb(216, 214, 214);"/><g transform="matrix(1, 0, 0, 1, 5.684341886080802e-14, 1.4210854715202004e-14)">
			<path class="st42" d="M372.7,154c-5.6,7.4-16.1,8.9-23.5,3.3l-50.1-37.7c-8.8-6.6-10.6-19.2-3.9-28c6.6-8.8,19.2-10.6,28-3.9&#10;&#9;&#9;&#9;&#9;l32.4,24.4c0.9,0.7,1.1,2,0.4,3c-0.7,0.9-2,1.1-3,0.4l-32.4-24.4c-6.9-5.2-16.8-3.8-22,3.1c-5.2,6.9-3.8,16.8,3.1,22l50.1,37.7&#10;&#9;&#9;&#9;&#9;c5.5,4.1,13.4,3,17.5-2.5c4.1-5.5,3-13.4-2.5-17.5l-44.4-33.4c-3.7-2.8-9.1-2.1-11.9,1.7s-2.1,9.1,1.7,11.9l33,24.9&#10;&#9;&#9;&#9;&#9;c0.9,0.7,1.1,2,0.4,3s-2,1.1-3,0.4l-33-24.9c-5.6-4.2-6.8-12.3-2.5-17.9c4.2-5.6,12.3-6.8,17.9-2.5l44.4,33.4&#10;&#9;&#9;&#9;&#9;C376.8,136.1,378.2,146.6,372.7,154z" style="fill: rgb(85, 172, 216);"/>
		</g><path class="st43" d="M297.3,91.9c-6.6,8.8-4.9,21.4,3.9,28l50.1,37.7c2.2,1.6,4.6,2.6,7.1,3.1c5.4,0.3,10.8-2,14.3-6.7&#10;&#9;&#9;&#9;c5.6-7.4,4.1-17.9-3.3-23.5L325,97.1c-1.6-1.2-3.3-1.9-5.2-2.3c-4-0.1-8,1.6-10.6,5.1c-4.2,5.6-3.1,13.7,2.5,17.9l33,24.9&#10;&#9;&#9;&#9;c0,0,0,0,0,0c0.3-0.1,0.6-0.4,0.9-0.7c0.7-0.9,0.5-2.3-0.4-3l-33-24.9c-3.7-2.8-4.5-8.2-1.7-11.9c2.1-2.8,5.7-3.9,8.9-3.1&#10;&#9;&#9;&#9;c1.8,0,3.6,0.5,5.1,1.7l44.4,33.4c5.5,4.1,6.6,12,2.5,17.5c-3,4-7.9,5.6-12.5,4.7c-2.5-0.1-5-0.9-7.1-2.5l-50.1-37.7&#10;&#9;&#9;&#9;c-6.9-5.2-8.3-15.1-3.1-22c3.7-4.9,9.8-7,15.4-6c3,0.1,6.1,1.2,8.7,3.1l32.4,24.4c0,0,0,0,0,0c0.3-0.1,0.6-0.4,0.9-0.7&#10;&#9;&#9;&#9;c0.7-0.9,0.5-2.3-0.4-3l-32.4-24.4c-2.6-2-5.6-3.2-8.6-3.7C308,83.5,301.5,86.3,297.3,91.9z" style="fill: rgb(17, 118, 181);" transform="matrix(1, 0, 0, 1, 5.684341886080802e-14, 1.4210854715202004e-14)"/><g transform="matrix(1, 0, 0, 1, 5.684341886080802e-14, 1.4210854715202004e-14)">
			<path class="st44" d="M490,380.7c-5.6,7.4-16.1,8.9-23.5,3.3l-50.1-37.7c-8.8-6.6-10.6-19.2-3.9-28c6.6-8.8,19.2-10.6,28-3.9&#10;&#9;&#9;&#9;&#9;l32.4,24.4c0.9,0.7,1.1,2,0.4,3s-2,1.1-3,0.4l-32.4-24.4c-6.9-5.2-16.8-3.8-22,3.1c-5.2,6.9-3.8,16.8,3.1,22l50.1,37.7&#10;&#9;&#9;&#9;&#9;c5.5,4.1,13.4,3,17.5-2.5c4.1-5.5,3-13.4-2.5-17.5l-44.4-33.4c-3.7-2.8-9.1-2.1-11.9,1.7c-2.8,3.7-2.1,9.1,1.7,11.9l33,24.9&#10;&#9;&#9;&#9;&#9;c0.9,0.7,1.1,2,0.4,3s-2,1.1-3,0.4l-33-24.9c-5.6-4.2-6.8-12.3-2.5-17.9c4.2-5.6,12.3-6.8,17.9-2.5l44.4,33.4&#10;&#9;&#9;&#9;&#9;C494.1,362.8,495.6,373.3,490,380.7z" style="fill: rgb(175, 56, 124);"/>
		</g><path class="st45" d="M414.6,318.6c-6.6,8.8-4.9,21.4,3.9,28l50.1,37.7c2.2,1.6,4.6,2.6,7.1,3.1c5.4,0.3,10.8-2,14.3-6.7&#10;&#9;&#9;&#9;c5.6-7.4,4.1-17.9-3.3-23.5l-44.4-33.4c-1.6-1.2-3.3-1.9-5.2-2.3c-4-0.1-8,1.6-10.6,5.1c-4.2,5.6-3.1,13.7,2.5,17.9l33,24.9&#10;&#9;&#9;&#9;c0,0,0,0,0,0c0.3-0.1,0.6-0.4,0.9-0.7c0.7-0.9,0.5-2.3-0.4-3l-33-24.9c-3.7-2.8-4.5-8.2-1.7-11.9c2.1-2.8,5.7-3.9,8.9-3.1&#10;&#9;&#9;&#9;c1.8,0,3.6,0.5,5.1,1.7l44.4,33.4c5.5,4.1,6.6,12,2.5,17.5c-3,4-7.9,5.6-12.5,4.7c-2.5-0.1-5-0.9-7.1-2.5L419,342.9&#10;&#9;&#9;&#9;c-6.9-5.2-8.3-15.1-3.1-22c3.7-4.9,9.8-7,15.4-6c3,0.1,6.1,1.2,8.7,3.1l32.4,24.4c0,0,0,0,0,0c0.3-0.1,0.6-0.4,0.9-0.7&#10;&#9;&#9;&#9;c0.7-0.9,0.5-2.3-0.4-3l-32.4-24.4c-2.6-2-5.6-3.2-8.6-3.7C425.3,310.2,418.8,313,414.6,318.6z" style="fill: rgb(158, 31, 99);" transform="matrix(1, 0, 0, 1, 5.684341886080802e-14, 1.4210854715202004e-14)"/><g transform="matrix(1, 0, 0, 1, 5.684341886080802e-14, 1.4210854715202004e-14)">
			<path class="st44" d="M137.8,691c-8.4-3.8-12.2-13.7-8.4-22.2l25.7-57.2c4.5-10.1,16.4-14.6,26.4-10.1S196,618,191.5,628&#10;&#9;&#9;&#9;&#9;l-16.6,37c-0.5,1.1-1.7,1.6-2.8,1.1c-1.1-0.5-1.6-1.7-1.1-2.8l16.6-37c3.5-7.9,0-17.2-7.9-20.8c-7.9-3.5-17.2,0-20.8,7.9&#10;&#9;&#9;&#9;&#9;l-25.7,57.2c-2.8,6.3,0,13.7,6.3,16.5c6.3,2.8,13.7,0,16.5-6.3l22.8-50.7c1.9-4.3,0-9.3-4.3-11.2c-4.3-1.9-9.3,0-11.2,4.3&#10;&#9;&#9;&#9;&#9;l-16.9,37.7c-0.5,1.1-1.7,1.6-2.8,1.1c-1.1-0.5-1.6-1.7-1.1-2.8l16.9-37.7c2.9-6.4,10.5-9.3,16.9-6.4c6.4,2.9,9.3,10.5,6.4,16.9&#10;&#9;&#9;&#9;&#9;L160,682.6C156.2,691,146.2,694.8,137.8,691z" style="fill: rgb(175, 56, 124);"/>
		</g><path class="st45" d="M181.6,603.7c-10.1-4.5-21.9,0-26.4,10.1L129.6,671c-1.1,2.5-1.6,5.1-1.4,7.6c0.9,5.3,4.4,10.1,9.7,12.5&#10;&#9;&#9;&#9;c8.4,3.8,18.4,0,22.2-8.4l22.8-50.7c0.8-1.8,1.1-3.7,1.1-5.5c-0.8-3.9-3.4-7.5-7.3-9.2c-6.4-2.9-14,0-16.9,6.4l-16.9,37.7&#10;&#9;&#9;&#9;c0,0,0,0,0,0c0.2,0.3,0.5,0.5,0.9,0.7c1.1,0.5,2.3,0,2.8-1.1l16.9-37.7c1.9-4.3,7-6.2,11.2-4.3c3.2,1.4,5.1,4.6,5,8&#10;&#9;&#9;&#9;c0.4,1.7,0.3,3.6-0.5,5.4L156.3,683c-2.8,6.3-10.2,9.1-16.5,6.3c-4.5-2-7.3-6.5-7.4-11.1c-0.5-2.4-0.2-5.1,0.9-7.5l25.7-57.2&#10;&#9;&#9;&#9;c3.5-7.9,12.9-11.4,20.8-7.9c5.6,2.5,9,8,9.3,13.7c0.5,3,0.2,6.2-1.1,9.1l-16.6,37c0,0,0,0,0,0c0.2,0.3,0.5,0.5,0.9,0.7&#10;&#9;&#9;&#9;c1.1,0.5,2.3,0,2.8-1.1l16.6-37c1.3-3,1.9-6.1,1.7-9.2C192.1,612.4,188,606.6,181.6,603.7z" style="fill: rgb(158, 31, 99);" transform="matrix(1, 0, 0, 1, 5.684341886080802e-14, 1.4210854715202004e-14)"/><g transform="matrix(1, 0, 0, 1, 5.684341886080802e-14, 1.4210854715202004e-14)">
			<path class="st46" d="M402.2,666.9c-9.3,0-16.8-7.5-16.8-16.8v-62.7c0-11,9-20,20-20c11,0,20,9,20,20V628c0,1.2-1,2.1-2.1,2.1&#10;&#9;&#9;&#9;&#9;s-2.1-1-2.1-2.1v-40.5c0-8.7-7-15.7-15.7-15.7c-8.7,0-15.7,7-15.7,15.7v62.7c0,6.9,5.6,12.5,12.5,12.5s12.5-5.6,12.5-12.5v-55.6&#10;&#9;&#9;&#9;&#9;c0-4.7-3.8-8.5-8.5-8.5s-8.5,3.8-8.5,8.5v41.4c0,1.2-1,2.1-2.1,2.1s-2.1-1-2.1-2.1v-41.4c0-7,5.7-12.8,12.8-12.8&#10;&#9;&#9;&#9;&#9;c7,0,12.8,5.7,12.8,12.8v55.6C419,659.4,411.5,666.9,402.2,666.9z" style="fill: rgb(241, 242, 242);"/>
		</g><path class="st47" d="M406.5,569.3c-11,0-20,9-20,20V652c0,2.7,0.6,5.3,1.8,7.5c3,4.5,8.1,7.4,13.9,7.4c9.3,0,16.8-7.5,16.8-16.8&#10;&#9;&#9;&#9;v-55.6c0-2-0.5-3.8-1.3-5.5c-2.3-3.3-6.1-5.4-10.4-5.4c-7,0-12.8,5.7-12.8,12.8v41.4c0,0,0,0,0,0c0.3,0.2,0.7,0.3,1.1,0.3&#10;&#9;&#9;&#9;c1.2,0,2.1-1,2.1-2.1v-41.4c0-4.7,3.8-8.5,8.5-8.5c3.5,0,6.6,2.2,7.8,5.2c1.1,1.4,1.7,3.2,1.7,5.1V652c0,6.9-5.6,12.5-12.5,12.5&#10;&#9;&#9;&#9;c-5,0-9.3-2.9-11.3-7.1c-1.4-2-2.3-4.5-2.3-7.2v-62.7c0-8.7,7-15.7,15.7-15.7c6.2,0,11.5,3.6,14.1,8.7c1.7,2.5,2.7,5.5,2.7,8.8&#10;&#9;&#9;&#9;v40.5c0,0,0,0,0,0c0.3,0.2,0.7,0.3,1.1,0.3c1.2,0,2.1-1,2.1-2.1v-40.5c0-3.3-0.8-6.4-2.2-9.1C419.6,572.9,413.5,569.3,406.5,569.3&#10;&#9;&#9;&#9;z" style="fill: rgb(209, 211, 212);" transform="matrix(1, 0, 0, 1, 5.684341886080802e-14, 1.4210854715202004e-14)"/><g transform="matrix(1, 0, 0, 1, 5.684341886080802e-14, 1.4210854715202004e-14)">
			<path class="st48" d="M595.4,490.9c-9.3,0-16.8-7.5-16.8-16.8v-62.7c0-11,9-20,20-20c11,0,20,9,20,20v40.5c0,1.2-1,2.1-2.1,2.1&#10;&#9;&#9;&#9;&#9;c-1.2,0-2.1-1-2.1-2.1v-40.5c0-8.7-7-15.7-15.7-15.7c-8.7,0-15.7,7-15.7,15.7v62.7c0,6.9,5.6,12.5,12.5,12.5S608,481,608,474.1&#10;&#9;&#9;&#9;&#9;v-55.6c0-4.7-3.8-8.5-8.5-8.5c-4.7,0-8.5,3.8-8.5,8.5v41.4c0,1.2-1,2.1-2.1,2.1s-2.1-1-2.1-2.1v-41.4c0-7,5.7-12.8,12.8-12.8&#10;&#9;&#9;&#9;&#9;c7,0,12.8,5.7,12.8,12.8v55.6C612.2,483.3,604.7,490.9,595.4,490.9z" style="fill: rgb(242, 226, 158);"/>
		</g><path class="st49" d="M599.7,393.2c-11,0-20,9-20,20v62.7c0,2.7,0.6,5.3,1.8,7.5c3,4.5,8.1,7.4,13.9,7.4c9.3,0,16.8-7.5,16.8-16.8&#10;&#9;&#9;&#9;v-55.6c0-2-0.5-3.8-1.3-5.5c-2.3-3.3-6.1-5.4-10.4-5.4c-7,0-12.8,5.7-12.8,12.8v41.4c0,0,0,0,0,0c0.3,0.2,0.7,0.3,1.1,0.3&#10;&#9;&#9;&#9;c1.2,0,2.1-1,2.1-2.1v-41.4c0-4.7,3.8-8.5,8.5-8.5c3.5,0,6.6,2.2,7.8,5.2c1.1,1.4,1.7,3.2,1.7,5.1v55.6c0,6.9-5.6,12.5-12.5,12.5&#10;&#9;&#9;&#9;c-5,0-9.3-2.9-11.3-7.1c-1.4-2-2.3-4.5-2.3-7.2v-62.7c0-8.7,7-15.7,15.7-15.7c6.2,0,11.5,3.6,14.1,8.7c1.7,2.5,2.7,5.5,2.7,8.8&#10;&#9;&#9;&#9;v40.5c0,0,0,0,0,0c0.3,0.2,0.7,0.3,1.1,0.3c1.2,0,2.1-1,2.1-2.1v-40.5c0-3.3-0.8-6.4-2.2-9.1C612.8,396.8,606.7,393.2,599.7,393.2&#10;&#9;&#9;&#9;z" style="fill: rgb(246, 218, 105);" transform="matrix(1, 0, 0, 1, 5.684341886080802e-14, 1.4210854715202004e-14)"/><g transform="matrix(1, 0, 0, 1, 5.684341886080802e-14, 1.4210854715202004e-14)">
			<path class="st50" d="M478.1,309.5c-4.4-8.1-1.4-18.3,6.7-22.8l55.1-30c9.7-5.3,21.8-1.7,27.1,8c5.3,9.7,1.7,21.8-8,27.1&#10;&#9;&#9;&#9;&#9;l-35.6,19.4c-1,0.6-2.3,0.2-2.9-0.9c-0.6-1-0.2-2.3,0.9-2.9l35.6-19.4c7.6-4.1,10.4-13.7,6.3-21.3c-4.1-7.6-13.7-10.4-21.3-6.3&#10;&#9;&#9;&#9;&#9;l-55.1,30c-6.1,3.3-8.3,10.9-5,17c3.3,6.1,10.9,8.3,17,5l48.8-26.6c4.1-2.2,5.6-7.4,3.4-11.5s-7.4-5.7-11.5-3.4l-36.3,19.8&#10;&#9;&#9;&#9;&#9;c-1,0.6-2.3,0.2-2.9-0.9c-0.6-1-0.2-2.3,0.9-2.9l36.3-19.8c6.2-3.4,14-1.1,17.3,5.1c3.4,6.2,1.1,14-5.1,17.3l-48.8,26.6&#10;&#9;&#9;&#9;&#9;C492.7,320.7,482.5,317.7,478.1,309.5z" style="fill: rgb(224, 80, 76);"/>
		</g><path class="st51" d="M565.9,266.6c-5.3-9.7-17.4-13.3-27.1-8l-55.1,30c-2.4,1.3-4.3,3.1-5.8,5.2c-2.5,4.8-2.6,10.7,0.1,15.8&#10;&#9;&#9;&#9;c4.4,8.1,14.6,11.1,22.8,6.7l48.8-26.6c1.7-0.9,3.1-2.2,4.2-3.7c1.8-3.6,1.9-8-0.2-11.8c-3.4-6.2-11.1-8.5-17.3-5.1L500,288.8&#10;&#9;&#9;&#9;c0,0,0,0,0,0c0,0.4,0.1,0.7,0.2,1.1c0.6,1,1.9,1.4,2.9,0.9l36.3-19.8c4.1-2.2,9.3-0.7,11.5,3.4c1.7,3.1,1.2,6.8-0.8,9.4&#10;&#9;&#9;&#9;c-0.7,1.6-2,3-3.7,4l-48.8,26.6c-6.1,3.3-13.7,1-17-5c-2.4-4.4-1.9-9.5,0.9-13.3c1.1-2.2,2.9-4.2,5.2-5.5l55.1-30&#10;&#9;&#9;&#9;c7.6-4.1,17.2-1.3,21.3,6.3c2.9,5.4,2.4,11.8-1,16.5c-1.4,2.7-3.6,5-6.4,6.6l-35.6,19.4c0,0,0,0,0,0c0,0.4,0.1,0.7,0.2,1.1&#10;&#9;&#9;&#9;c0.6,1,1.9,1.4,2.9,0.9l35.6-19.4c2.9-1.6,5.2-3.8,7-6.3C569,279.9,569.2,272.8,565.9,266.6z" style="fill: rgb(228, 22, 11);" transform="matrix(1, 0, 0, 1, 5.684341886080802e-14, 1.4210854715202004e-14)"/><g transform="matrix(1, 0, 0, 1, 5.684341886080802e-14, 1.4210854715202004e-14)">
			<path class="st52" d="M405.5,836.4c-8.3-4.1-11.7-14.2-7.5-22.5l28-56.1c4.9-9.9,16.9-13.9,26.8-9s13.9,16.9,9,26.8l-18.1,36.3&#10;&#9;&#9;&#9;&#9;c-0.5,1.1-1.8,1.5-2.9,1c-1.1-0.5-1.5-1.8-1-2.9l18.1-36.3c3.9-7.8,0.7-17.2-7-21.1c-7.8-3.9-17.2-0.7-21.1,7l-28,56.1&#10;&#9;&#9;&#9;&#9;c-3.1,6.2-0.6,13.7,5.6,16.8c6.2,3.1,13.7,0.6,16.8-5.6l24.8-49.8c2.1-4.2,0.4-9.3-3.8-11.4c-4.2-2.1-9.3-0.4-11.4,3.8l-18.5,37&#10;&#9;&#9;&#9;&#9;c-0.5,1.1-1.8,1.5-2.9,1s-1.5-1.8-1-2.9l18.5-37c3.1-6.3,10.8-8.9,17.1-5.7c6.3,3.1,8.9,10.8,5.7,17.1L428,828.9&#10;&#9;&#9;&#9;&#9;C423.8,837.2,413.7,840.5,405.5,836.4z" style="fill: rgb(108, 147, 88);"/>
		</g><path class="st53" d="M452.9,750.9c-9.9-4.9-21.9-0.9-26.8,9l-28,56.1c-1.2,2.4-1.8,5-1.8,7.5c0.7,5.4,4,10.3,9.1,12.9&#10;&#9;&#9;&#9;c8.3,4.1,18.4,0.8,22.5-7.5l24.8-49.8c0.9-1.8,1.3-3.6,1.3-5.5c-0.6-4-3.1-7.6-6.9-9.5c-6.3-3.1-14-0.6-17.1,5.7l-18.5,37&#10;&#9;&#9;&#9;c0,0,0,0,0,0c0.2,0.3,0.5,0.6,0.8,0.7c1.1,0.5,2.3,0.1,2.9-1l18.5-37c2.1-4.2,7.2-5.9,11.4-3.8c3.2,1.6,4.9,4.9,4.7,8.2&#10;&#9;&#9;&#9;c0.3,1.8,0.1,3.6-0.7,5.4l-24.8,49.8c-3.1,6.2-10.6,8.7-16.8,5.6c-4.5-2.2-7-6.8-6.9-11.4c-0.4-2.5,0-5.1,1.2-7.5l28-56.1&#10;&#9;&#9;&#9;c3.9-7.8,13.3-10.9,21.1-7c5.5,2.7,8.7,8.3,8.7,14.1c0.4,3-0.1,6.2-1.5,9.1l-18.1,36.3c0,0,0,0,0,0c0.2,0.3,0.5,0.6,0.8,0.7&#10;&#9;&#9;&#9;c1.1,0.5,2.3,0.1,2.9-1l18.1-36.3c1.5-2.9,2.1-6.1,2.1-9.1C463,760,459.1,754.1,452.9,750.9z" style="fill: rgb(80, 108, 67);" transform="matrix(1, 0, 0, 1, 5.684341886080802e-14, 1.4210854715202004e-14)"/>

</svg>