<?xml version="1.0" encoding="utf-8"?>
<svg id="master-artboard" viewBox="0 0 1400 980" version="1.1" xmlns="http://www.w3.org/2000/svg" x="0px" y="0px" style="enable-background:new 0 0 1400 980;" width="1400px" height="980px">

<g>
	<path d="M 0 0 H 1400 V 980 H 0 V 0 Z" class="st0" style="fill: rgb(215, 247, 246);"/>
</g>
<path class="st1" d="M1294.9,455.8c-42.1-26.6-97.8-14-124.4,28.1c-18.2,28.9-18.1,64.2-2.5,92.1l-10.5,97.6l83.6-51.4&#10;&#9;c31.9,2,63.8-13,82-41.9C1349.6,538.1,1337,482.4,1294.9,455.8z M1222.6,570.2c-21.1-13.3-27.4-41.2-14.1-62.2&#10;&#9;c13.3-21.1,41.2-27.4,62.2-14c21.1,13.3,27.4,41.1,14.1,62.2C1271.6,577.2,1243.7,583.5,1222.6,570.2z" style="fill: rgb(255, 255, 255);"/>
<path class="st1" d="M198.4,410.4c-62.6-0.2-113.5,39.3-113.6,88.2c0,16.6,5.8,32.1,15.9,45.4l-16.1,37.3l47.9-10.3&#10;&#9;c18.5,10.3,41,16.4,65.4,16.4c62.6,0.2,113.5-39.3,113.6-88.2C311.7,450.3,261.1,410.6,198.4,410.4z M153.2,530.5l-15.8-0.1&#10;&#9;l0.2-63.5l15.8,0L153.2,530.5z M205.7,530.7l-15.8,0l0.2-63.5l15.8,0.1L205.7,530.7z M258.2,530.8l-15.8,0l0.2-63.5l15.8,0&#10;&#9;L258.2,530.8z" style="fill: rgb(255, 255, 255);"/>
<g>
	<path class="st1" d="M878.4,48.7C799.3,48.8,735.3,99,735.4,160.8c0,20.9,7.5,40.5,20.3,57.3l-20.2,47.2l60.5-13.3&#10;&#9;&#9;c23.4,12.9,52,20.4,82.8,20.4c79.1-0.1,143.2-50.3,143.1-112.1C1021.8,98.5,957.6,48.5,878.4,48.7z M878.8,252.2&#10;&#9;&#9;c-26.5,0-51.7-6.1-73-17.9l-6.6-3.7l-29.7,6.5l9.4-22.1l-7.2-9.3c-10.6-13.7-16.1-29.3-16.2-45.1c-0.1-50.6,55.1-91.8,123-91.9&#10;&#9;&#9;c67.9-0.1,123.2,40.9,123.3,91.5C1001.9,210.9,946.7,252.1,878.8,252.2z" style="fill: rgb(255, 255, 255);"/>
	<path class="st1" d="M949.6,134.2l-23.9,13.9l0-23.1c0-2.4-1.9-4.3-4.3-4.3l-105.1,0.2c-2.4,0-4.3,1.9-4.3,4.3l0.1,70.8&#10;&#9;&#9;c0,2.4,1.9,4.3,4.3,4.3l105.1-0.2c2.4,0,4.3-1.9,4.3-4.3l-0.1-23l24,13.8c5,2.9,9.2,0.5,9.1-5.3l-0.1-41.9&#10;&#9;&#9;C958.8,133.7,954.6,131.3,949.6,134.2z" style="fill: rgb(255, 255, 255);"/>
</g>
<g>
	<path class="st1" d="M658.6,851.8L453,737.9c23.5,43.5,57.7,106.9,66.3,122.8L658.6,851.8z" style="fill: rgb(255, 255, 255);"/>
	<path class="st1" d="M604,980l64-115.5l-157.9,12.9l-72.8-140.7l-74.5,134.4c-1.6,2.9-0.5,6.6,2.4,8.2L547,980H604z" style="fill: rgb(255, 255, 255);"/>
</g>
<g>
	<path class="st1" d="M363.5,113.4c-3,38,25.4,71.2,63.3,74.2c14.4,1.1,28.2-2.3,39.8-9l52.7,61.7c10.1,9.3,19.5,1.5,19.5,1.5&#10;&#9;&#9;c10.4-9.1,2.5-19.9,2.5-19.9L488,159.5c7.3-10,12-22,13.1-35.3c3-38-25.4-71.2-63.3-74.2C399.7,47,366.4,75.4,363.5,113.4z&#10;&#9;&#9; M483.1,122.8c-2.2,28.1-26.8,49-54.9,46.8c-28.1-2.2-49-26.8-46.8-54.9c2.2-28.1,26.8-49,54.9-46.8&#10;&#9;&#9;C464.3,70.2,485.3,94.7,483.1,122.8z" style="fill: rgb(255, 255, 255);"/>
	<path class="st1" d="M462.4,89.9c-12.8-15-35.4-16.8-50.4-4c-1.6,1.3-3,2.8-4.3,4.4c15.3-4,32.1,0.7,43,13.5&#10;&#9;&#9;c8.5,10,11.6,22.8,9.5,34.8C473.5,125.5,474.6,104.3,462.4,89.9z" style="fill: rgb(255, 255, 255);"/>
</g>
<path class="st1" d="M1111.1,755c6.3-6.5,14.1-10.7,22.3-12.6c-2.7-12.3-7.1-24.2-13.1-35.5c-16.7,8.3-37.5,5.8-51.7-7.9&#10;&#9;c-14.2-13.7-17.4-34.4-9.6-51.4c-11.6-5.7-23.9-9.7-36.4-12c-1.6,8.2-5.5,16-11.8,22.5c-17.4,17.9-46,18.4-63.9,1.1&#10;&#9;c-3.8-3.8-6.8-8-9-12.5c-11.4,5.4-22.2,12.4-32.1,21.1c14.5,17.5,13.8,43.4-2.3,60.1c-11.1,11.5-26.9,15.8-41.6,12.8&#10;&#9;c-2.9,12.3-4,25-3.5,37.6c11.5-0.1,23.1,4.1,32,12.7c17.9,17.4,18.4,46,1,63.9c-1.2,1.2-2.4,2.3-3.7,3.4c3.9,5,8.2,9.8,12.9,14.4&#10;&#9;c4.8,4.5,9.7,8.6,14.8,12.4c1-1.3,2.1-2.6,3.2-3.8c17.4-18,46-18.4,64-1.1c8.9,8.7,13.5,20.1,13.8,31.6c12.6,0.1,25.2-1.5,37.5-4.8&#10;&#9;c-3.5-14.5,0.3-30.4,11.5-42c2.1-2.2,4.4-4.1,6.8-5.8c16-11.1,37.6-10.7,53.3,1.4c1.1-1.4,2.2-2.8,3.2-4.2&#10;&#9;c6.8-9,12.4-18.7,16.8-28.8c-4.8-2.1-9.2-5-13.2-8.8C1094.2,801.6,1093.8,772.9,1111.1,755z M1050.8,824.1&#10;&#9;c-5.6,5.8-12,10.5-18.8,14.1c-27.6,14.5-62.5,10.5-86.1-12.3c-29.4-28.5-30.2-75.4-1.7-104.8c28.5-29.5,75.4-30.3,104.9-1.8&#10;&#9;c25.4,24.6,29.5,62.8,11.8,91.8C1058.1,815.7,1054.7,820.1,1050.8,824.1z" style="fill: rgb(255, 255, 255);"/>
<path class="st1" d="M316.3,248c5.5-5.6,12.2-9.3,19.3-10.9c-2.4-10.6-6.1-21-11.4-30.8c-14.5,7.2-32.5,5-44.8-6.9&#10;&#9;c-12.3-11.9-15.1-29.9-8.3-44.6c-10.1-5-20.7-8.5-31.5-10.4c-1.4,7.1-4.8,13.9-10.2,19.5c-15.1,15.5-39.9,16-55.5,0.9&#10;&#9;c-3.3-3.3-5.9-6.9-7.8-10.8c-9.9,4.7-19.3,10.8-27.9,18.3c12.6,15.2,12,37.7-2,52.2c-9.7,10-23.4,13.7-36.1,11.1&#10;&#9;c-2.5,10.7-3.5,21.7-3.1,32.6c10-0.1,20,3.5,27.8,11c15.5,15.1,16,39.9,0.9,55.5c-1,1.1-2.1,2-3.2,2.9c3.4,4.4,7.2,8.5,11.2,12.5&#10;&#9;c4.1,3.9,8.4,7.5,12.8,10.7c0.9-1.1,1.8-2.2,2.8-3.3c15.1-15.6,39.9-16,55.5-0.9c7.7,7.5,11.7,17.4,11.9,27.4&#10;&#9;c10.9,0.1,21.9-1.3,32.5-4.2c-3-12.6,0.3-26.4,9.9-36.4c1.8-1.9,3.8-3.6,5.9-5c13.9-9.6,32.6-9.3,46.2,1.2c1-1.2,1.9-2.4,2.8-3.6&#10;&#9;c5.9-7.8,10.8-16.2,14.6-25c-4.1-1.8-8-4.4-11.4-7.6C301.7,288.4,301.3,263.6,316.3,248z M264,308c-4.9,5-10.4,9.1-16.3,12.2&#10;&#9;c-23.9,12.6-54.2,9.1-74.7-10.7c-25.5-24.7-26.2-65.4-1.5-90.9c24.7-25.6,65.4-26.3,91-1.5c22,21.3,25.6,54.5,10.3,79.6&#10;&#9;C270.3,300.7,267.4,304.5,264,308z" style="fill: rgb(255, 255, 255);"/>
<g>
	<g>
		<g>
			<path class="st1" d="M163.6,817.3l27.9,2.2c3.9-37.6,35.9-66.1,73.4-65.9l2.2-28C214.3,724.4,168.8,764.3,163.6,817.3z" style="fill: rgb(255, 255, 255);"/>
		</g>
		<g>
			<path class="st1" d="M85.6,811.1l27.9,2.2c7.4-80.7,77.1-141.3,157.6-137.8l2.2-27.9C177.4,642.9,94.2,715.1,85.6,811.1z" style="fill: rgb(255, 255, 255);"/>
		</g>
	</g>
	<path class="st1" d="M261.2,799.9c15,1.2,26.3,14.4,25.1,29.4c-1.2,15-14.3,26.3-29.4,25.1c-15-1.2-26.3-14.3-25.1-29.4&#10;&#9;&#9;C233,810,246.2,798.7,261.2,799.9z" style="fill: rgb(255, 255, 255);"/>
</g>
<path class="st1" d="M1275.9,117.5H1105c-8,0-14.4,6.5-14.4,14.5v29.5h17.9c1.8-2,4.5-3.3,7.5-3.3c5.5,0,10,4.5,10,10&#10;&#9;c0,5.5-4.5,10-10,10c-3,0-5.6-1.3-7.5-3.4h-17.9v30.3h17.9c1.8-2,4.5-3.3,7.5-3.3c5.5,0,10,4.5,10,10c0,5.5-4.5,10-10,10&#10;&#9;c-3,0-5.6-1.3-7.5-3.3h-17.9v30.2h17.9c1.8-2,4.5-3.3,7.5-3.3c5.5,0,10,4.5,10,10c0,5.5-4.5,10-10,10c-3,0-5.6-1.3-7.5-3.3h-17.9&#10;&#9;v30.3h17.9c1.8-2,4.5-3.3,7.5-3.3c5.5,0,10,4.5,10,10c0,5.6-4.5,10-10,10c-3,0-5.6-1.3-7.5-3.4h-17.9v35.6c0,8,6.5,14.4,14.4,14.4&#10;&#9;h170.9c8,0,14.4-6.5,14.4-14.4V131.9C1290.4,123.9,1283.9,117.5,1275.9,117.5z M1268.8,309.7L1268.8,309.7l-56,0h-12.6h-56.2v0&#10;&#9;c0-44.6,7-50.4,7-50.4c5.1-6.5,17.4-8.8,17.4-8.8c9.2-2.9,17.6-6.2,20.5-8.2l3-4.5v-8.3l0,0c-2.9-3.2-5.4-7.6-6.4-13.6&#10;&#9;c0,0-7.5-2-7.1-14.2c0,0-0.3-6.1,4.8-3.5c0,0-0.1-0.6-0.2-1.5c-2.3-2.7-5.4-8.2-2.5-16.3c0,0,2.2-4.8-1.2-6.8c0,0,7.8-2.7,8.4-5.7&#10;&#9;c0,0-1.7-3.8-5.2-2.1c0,0,5.2-4.6,14.8-2.1c0,0,0.6-5.5-3.2-6.2c0,0,23-3.4,37,13.5c0,0,6.9,14.4-1.3,26.1c-0.1,0.6-0.1,0.9-0.1,0.9&#10;&#9;c5.1-2.6,4.8,3.5,4.8,3.5c0.4,12.2-7.1,14.2-7.1,14.2c-1,6-3.5,10.4-6.4,13.6h0v8.3l3,4.5c2.9,1.9,11.2,5.3,20.5,8.2&#10;&#9;c0,0,12.3,2.3,17.4,8.8C1261.8,259.3,1270.4,278.4,1268.8,309.7z" style="fill: rgb(255, 255, 255);"/>
<g>
	<path d="M 198.100006 233.800003 H 528.399994 V 269.000004 H 198.100006 V 233.800003 Z" class="st2" style="fill: rgb(192, 73, 33);"/>
	<path d="M 198.100006 269 H 528.399994 V 749.799988 H 198.100006 V 269 Z" class="st3" style="fill: rgb(223, 84, 41);"/>
	<path d="M 229.5 242.899994 H 234.3 V 258.499994 H 229.5 V 242.899994 Z" class="st1" style="fill: rgb(255, 255, 255);"/>
	<path d="M 222.600006 245.100006 H 227.400006 V 258.500006 H 222.600006 V 245.100006 Z" class="st1" style="fill: rgb(255, 255, 255);"/>
	<path d="M 215.699997 247.199997 H 220.499997 V 258.499997 H 215.699997 V 247.199997 Z" class="st1" style="fill: rgb(255, 255, 255);"/>
	<path d="M 208.899994 249.199997 H 213.699994 V 258.499997 H 208.899994 V 249.199997 Z" class="st1" style="fill: rgb(255, 255, 255);"/>
	<g>
		<path class="st1" d="M513.4,259.6h-29v-16.4h29V259.6z M485.6,258.4h26.5v-13.9h-26.5V258.4z" style="fill: rgb(255, 255, 255);"/>
	</g>
	<g>
		<path d="M 515 247.5 H 517.5 V 255.5 H 515 V 247.5 Z" class="st1" style="fill: rgb(255, 255, 255);"/>
	</g>
	<g>
		<path d="M 487.5 246.100006 H 491.3 V 256.700006 H 487.5 V 246.100006 Z" class="st1" style="fill: rgb(255, 255, 255);"/>
	</g>
	<g>
		<path d="M 493.700012 246.100006 H 497.500012 V 256.700006 H 493.700012 V 246.100006 Z" class="st1" style="fill: rgb(255, 255, 255);"/>
	</g>
	<g>
		<path d="M 499.899994 246.100006 H 503.699994 V 256.700006 H 499.899994 V 246.100006 Z" class="st1" style="fill: rgb(255, 255, 255);"/>
	</g>
	<g>
		<path d="M 506.100006 246.100006 H 509.900006 V 256.700006 H 506.100006 V 246.100006 Z" class="st1" style="fill: rgb(255, 255, 255);"/>
	</g>
	<g>
		<g>
			<path class="st2" d="M363.2,725.4c-26.3,0-47.8-21.4-47.8-47.8c0-26.3,21.4-47.8,47.8-47.8c26.3,0,47.8,21.4,47.8,47.8&#10;&#9;&#9;&#9;&#9;C411,704,389.6,725.4,363.2,725.4z M363.2,636.7c-22.6,0-40.9,18.4-40.9,40.9c0,22.6,18.4,40.9,40.9,40.9&#10;&#9;&#9;&#9;&#9;c22.6,0,40.9-18.4,40.9-40.9C404.2,655.1,385.8,636.7,363.2,636.7z" style="fill: rgb(192, 73, 33);"/>
		</g>
		<path d="M 339.1000061035156 703.4000244140625 L 352.1000061035156 667.5 L 369.79998779296875 673.0999755859375 L 387.29998779296875 651.7999877929688 L 373.8999938964844 687.4000244140625 L 356.3999938964844 682 Z" class="st2" style="fill: rgb(192, 73, 33);"/>
	</g>
	<g>
		<path class="st4" d="M467.3,380H259.2c-9.8,0-17.7,7.9-17.7,17.5v157.8c0,9.7,7.9,17.5,17.7,17.5h92.2c1.3,5.4,6.1,9.4,11.9,9.4&#10;&#9;&#9;&#9;c5.8,0,10.6-4,11.9-9.4h92.2c9.8,0,17.7-7.9,17.7-17.5V397.5C485,387.9,477.1,380,467.3,380z" style="fill: rgb(65, 64, 66);"/>
		<path class="st1" d="M263.8,368.8c-5.8,0-10.5,4.7-10.5,10.5v166.8c0,5.8,4.7,10.5,10.5,10.5h88.9c1.1,0,2.1,0.2,3.1,0.5V368.8&#10;&#9;&#9;&#9;H263.8z" style="fill: rgb(255, 255, 255);"/>
		<path class="st1" d="M462.6,368.8h-92v188.4c1-0.3,2-0.5,3.1-0.5h88.9c5.8,0,10.5-4.7,10.5-10.5V379.4&#10;&#9;&#9;&#9;C473.2,373.5,468.5,368.8,462.6,368.8z" style="fill: rgb(255, 255, 255);"/>
		<path class="st5" d="M355.8,368.8v188.4c4.3,1.3,7.4,5.3,7.4,10.1c0-4.7,3.1-8.7,7.4-10.1V368.8H355.8z" style="fill: rgb(230, 231, 232);"/>
		<path d="M 263.299988 416.100006 H 345.799988 V 424.100006 H 263.299988 V 416.100006 Z" class="st6" style="fill: rgb(239, 239, 240);"/>
		<path d="M 263.299988 433.200012 H 345.799988 V 441.200012 H 263.299988 V 433.200012 Z" class="st6" style="fill: rgb(239, 239, 240);"/>
		<path d="M 263.299988 450.399994 H 345.799988 V 458.399994 H 263.299988 V 450.399994 Z" class="st6" style="fill: rgb(239, 239, 240);"/>
		<path d="M 263.299988 467.600006 H 345.799988 V 475.600006 H 263.299988 V 467.600006 Z" class="st6" style="fill: rgb(239, 239, 240);"/>
		<path d="M 263.299988 484.700012 H 345.799988 V 492.700012 H 263.299988 V 484.700012 Z" class="st6" style="fill: rgb(239, 239, 240);"/>
		<path d="M 263.299988 501.899994 H 345.799988 V 509.899994 H 263.299988 V 501.899994 Z" class="st6" style="fill: rgb(239, 239, 240);"/>
		<path d="M 380.700012 416.100006 H 463.200012 V 424.100006 H 380.700012 V 416.100006 Z" class="st6" style="fill: rgb(239, 239, 240);"/>
		<path d="M 380.700012 433.200012 H 463.200012 V 441.200012 H 380.700012 V 433.200012 Z" class="st6" style="fill: rgb(239, 239, 240);"/>
		<path d="M 380.700012 450.399994 H 463.200012 V 458.399994 H 380.700012 V 450.399994 Z" class="st6" style="fill: rgb(239, 239, 240);"/>
		<path d="M 380.700012 467.600006 H 463.200012 V 475.600006 H 380.700012 V 467.600006 Z" class="st6" style="fill: rgb(239, 239, 240);"/>
		<path d="M 380.700012 484.700012 H 463.200012 V 492.700012 H 380.700012 V 484.700012 Z" class="st6" style="fill: rgb(239, 239, 240);"/>
		<path d="M 380.700012 501.899994 H 424.700012 V 509.899994 H 380.700012 V 501.899994 Z" class="st6" style="fill: rgb(239, 239, 240);"/>
	</g>
</g>
<path class="st1" d="M1202.7,758.3c0-7.6,5.4-10.8,12-6.9l71.2,41.1c6.6,3.8,6.6,10.1,0,13.9l-71.2,41.1c-6.6,3.8-12,0.7-12-6.9&#10;&#9;V758.3z" style="fill: rgb(255, 255, 255);"/>
<g>
	<path d="M 878.700012 233.800003 H 1209 V 269.000004 H 878.700012 V 233.800003 Z" class="st7" style="fill: rgb(207, 189, 38);"/>
	<path d="M 878.700012 269 H 1209 V 749.799988 H 878.700012 V 269 Z" class="st8" style="fill: rgb(243, 219, 43);"/>
	<path d="M 910.099976 242.899994 H 914.899976 V 258.499994 H 910.099976 V 242.899994 Z" class="st1" style="fill: rgb(255, 255, 255);"/>
	<path d="M 903.200012 245.100006 H 908.000012 V 258.500006 H 903.200012 V 245.100006 Z" class="st1" style="fill: rgb(255, 255, 255);"/>
	<path d="M 896.299988 247.199997 H 901.099988 V 258.499997 H 896.299988 V 247.199997 Z" class="st1" style="fill: rgb(255, 255, 255);"/>
	<path d="M 889.5 249.199997 H 894.3 V 258.499997 H 889.5 V 249.199997 Z" class="st1" style="fill: rgb(255, 255, 255);"/>
	<g>
		<path class="st1" d="M1193.9,259.6h-29v-16.4h29V259.6z M1166.2,258.4h26.5v-13.9h-26.5V258.4z" style="fill: rgb(255, 255, 255);"/>
	</g>
	<g>
		<path d="M 1195.599976 247.5 H 1198.099976 V 255.5 H 1195.599976 V 247.5 Z" class="st1" style="fill: rgb(255, 255, 255);"/>
	</g>
	<g>
		<path d="M 1168.099976 246.100006 H 1171.899976 V 256.700006 H 1168.099976 V 246.100006 Z" class="st1" style="fill: rgb(255, 255, 255);"/>
	</g>
	<g>
		<path d="M 1174.300049 246.100006 H 1178.100049 V 256.700006 H 1174.300049 V 246.100006 Z" class="st1" style="fill: rgb(255, 255, 255);"/>
	</g>
	<g>
		<path d="M 1180.5 246.100006 H 1184.3 V 256.700006 H 1180.5 V 246.100006 Z" class="st1" style="fill: rgb(255, 255, 255);"/>
	</g>
	<g>
		<path d="M 1186.699951 246.100006 H 1190.499951 V 256.700006 H 1186.699951 V 246.100006 Z" class="st1" style="fill: rgb(255, 255, 255);"/>
	</g>
	<g>
		<g>
			<path class="st9" d="M1043.8,722.7c-25.4,0-46-20.7-46-46c0-25.4,20.7-46,46-46c25.4,0,46,20.7,46,46&#10;&#9;&#9;&#9;&#9;C1089.9,702,1069.2,722.7,1043.8,722.7z M1043.8,634c-23.5,0-42.7,19.1-42.7,42.7c0,23.5,19.1,42.7,42.7,42.7&#10;&#9;&#9;&#9;&#9;c23.5,0,42.7-19.1,42.7-42.7C1086.5,653.1,1067.4,634,1043.8,634z" style="fill: rgb(203, 185, 38);"/>
		</g>
		<g>
			<path d="M 1042.900024 700.200012 H 1044.700024 V 708.200012 H 1042.900024 V 700.200012 Z" class="st9" style="fill: rgb(203, 185, 38);"/>
			<path d="M 1042.900024 673.799988 H 1044.700024 V 681.399988 H 1042.900024 V 673.799988 Z" class="st9" style="fill: rgb(203, 185, 38);"/>
			<g>
				<g>
					<g>
						<path class="st9" d="M1070.6,674.1h-53.5c-0.5,0-0.9-0.4-0.9-0.9v-18.8c0-0.5,0.4-0.9,0.9-0.9h53.5c0.5,0,0.9,0.4,0.9,0.9&#10;&#9;&#9;&#9;&#9;&#9;&#9;&#9;v18.8C1071.5,673.7,1071.1,674.1,1070.6,674.1z M1018,672.3h51.7v-16.9H1018V672.3z" style="fill: rgb(203, 185, 38);"/>
					</g>
				</g>
			</g>
			<g>
				<g>
					<g>
						<path class="st9" d="M1070.6,701.3h-53.5c-0.5,0-0.9-0.4-0.9-0.9v-18.8c0-0.5,0.4-0.9,0.9-0.9h53.5c0.5,0,0.9,0.4,0.9,0.9&#10;&#9;&#9;&#9;&#9;&#9;&#9;&#9;v18.8C1071.5,700.9,1071.1,701.3,1070.6,701.3z M1018,699.5h51.7v-17H1018V699.5z" style="fill: rgb(203, 185, 38);"/>
					</g>
				</g>
			</g>
			<g>
				<g>
					<g>
						<g>
							<path class="st9" d="M1034,663.8c0,0.6-0.5,1.1-1.1,1.1c-0.6,0-1.1-0.5-1.1-1.1c0-0.6,0.5-1.1,1.1-1.1&#10;&#9;&#9;&#9;&#9;&#9;&#9;&#9;&#9;C1033.5,662.7,1034,663.2,1034,663.8z" style="fill: rgb(203, 185, 38);"/>
						</g>
					</g>
				</g>
			</g>
			<g>
				<g>
					<g>
						<g>
							<path class="st9" d="M1039.4,663.8c0,0.6-0.5,1.1-1.1,1.1c-0.6,0-1.1-0.5-1.1-1.1c0-0.6,0.5-1.1,1.1-1.1&#10;&#9;&#9;&#9;&#9;&#9;&#9;&#9;&#9;C1038.9,662.7,1039.4,663.2,1039.4,663.8z" style="fill: rgb(203, 185, 38);"/>
						</g>
					</g>
				</g>
			</g>
			<g>
				<g>
					<g>
						<g>
							<path class="st9" d="M1044.8,663.8c0,0.6-0.5,1.1-1.1,1.1c-0.6,0-1.1-0.5-1.1-1.1c0-0.6,0.5-1.1,1.1-1.1&#10;&#9;&#9;&#9;&#9;&#9;&#9;&#9;&#9;C1044.3,662.7,1044.8,663.2,1044.8,663.8z" style="fill: rgb(203, 185, 38);"/>
						</g>
					</g>
				</g>
			</g>
			<g>
				<g>
					<g>
						<g>
							<path class="st9" d="M1050.2,663.8c0,0.6-0.5,1.1-1.1,1.1c-0.6,0-1.1-0.5-1.1-1.1c0-0.6,0.5-1.1,1.1-1.1&#10;&#9;&#9;&#9;&#9;&#9;&#9;&#9;&#9;C1049.7,662.7,1050.2,663.2,1050.2,663.8z" style="fill: rgb(203, 185, 38);"/>
						</g>
					</g>
				</g>
			</g>
			<g>
				<g>
					<g>
						<g>
							<path class="st9" d="M1055.6,663.8c0,0.6-0.5,1.1-1.1,1.1c-0.6,0-1.1-0.5-1.1-1.1c0-0.6,0.5-1.1,1.1-1.1&#10;&#9;&#9;&#9;&#9;&#9;&#9;&#9;&#9;C1055.1,662.7,1055.6,663.2,1055.6,663.8z" style="fill: rgb(203, 185, 38);"/>
						</g>
					</g>
				</g>
			</g>
			<g>
				<g>
					<g>
						<g>
							<path class="st9" d="M1061,663.8c0,0.6-0.5,1.1-1.1,1.1c-0.6,0-1.1-0.5-1.1-1.1c0-0.6,0.5-1.1,1.1-1.1&#10;&#9;&#9;&#9;&#9;&#9;&#9;&#9;&#9;C1060.5,662.7,1061,663.2,1061,663.8z" style="fill: rgb(203, 185, 38);"/>
						</g>
					</g>
				</g>
			</g>
			<g>
				<g>
					<g>
						<g>
							<path class="st9" d="M1066.3,663.8c0,0.6-0.5,1.1-1.1,1.1c-0.6,0-1.1-0.5-1.1-1.1c0-0.6,0.5-1.1,1.1-1.1&#10;&#9;&#9;&#9;&#9;&#9;&#9;&#9;&#9;C1065.8,662.7,1066.3,663.2,1066.3,663.8z" style="fill: rgb(203, 185, 38);"/>
						</g>
					</g>
				</g>
			</g>
			<g>
				<g>
					<g>
						<g>
							<path class="st9" d="M1034,691c0,0.6-0.5,1.1-1.1,1.1c-0.6,0-1.1-0.5-1.1-1.1c0-0.6,0.5-1.1,1.1-1.1&#10;&#9;&#9;&#9;&#9;&#9;&#9;&#9;&#9;C1033.5,689.8,1034,690.3,1034,691z" style="fill: rgb(203, 185, 38);"/>
						</g>
					</g>
				</g>
			</g>
			<g>
				<g>
					<g>
						<g>
							<path class="st9" d="M1039.4,691c0,0.6-0.5,1.1-1.1,1.1c-0.6,0-1.1-0.5-1.1-1.1c0-0.6,0.5-1.1,1.1-1.1&#10;&#9;&#9;&#9;&#9;&#9;&#9;&#9;&#9;C1038.9,689.8,1039.4,690.3,1039.4,691z" style="fill: rgb(203, 185, 38);"/>
						</g>
					</g>
				</g>
			</g>
			<g>
				<g>
					<g>
						<g>
							<path class="st9" d="M1044.8,691c0,0.6-0.5,1.1-1.1,1.1c-0.6,0-1.1-0.5-1.1-1.1c0-0.6,0.5-1.1,1.1-1.1&#10;&#9;&#9;&#9;&#9;&#9;&#9;&#9;&#9;C1044.3,689.8,1044.8,690.3,1044.8,691z" style="fill: rgb(203, 185, 38);"/>
						</g>
					</g>
				</g>
			</g>
			<g>
				<g>
					<g>
						<g>
							<path class="st9" d="M1050.2,691c0,0.6-0.5,1.1-1.1,1.1c-0.6,0-1.1-0.5-1.1-1.1c0-0.6,0.5-1.1,1.1-1.1&#10;&#9;&#9;&#9;&#9;&#9;&#9;&#9;&#9;C1049.7,689.8,1050.2,690.3,1050.2,691z" style="fill: rgb(203, 185, 38);"/>
						</g>
					</g>
				</g>
			</g>
			<g>
				<g>
					<g>
						<g>
							<path class="st9" d="M1055.6,691c0,0.6-0.5,1.1-1.1,1.1c-0.6,0-1.1-0.5-1.1-1.1c0-0.6,0.5-1.1,1.1-1.1&#10;&#9;&#9;&#9;&#9;&#9;&#9;&#9;&#9;C1055.1,689.8,1055.6,690.3,1055.6,691z" style="fill: rgb(203, 185, 38);"/>
						</g>
					</g>
				</g>
			</g>
			<g>
				<g>
					<g>
						<g>
							<path class="st9" d="M1061,691c0,0.6-0.5,1.1-1.1,1.1c-0.6,0-1.1-0.5-1.1-1.1c0-0.6,0.5-1.1,1.1-1.1&#10;&#9;&#9;&#9;&#9;&#9;&#9;&#9;&#9;C1060.5,689.8,1061,690.3,1061,691z" style="fill: rgb(203, 185, 38);"/>
						</g>
					</g>
				</g>
			</g>
			<g>
				<g>
					<g>
						<g>
							<path class="st9" d="M1066.3,691c0,0.6-0.5,1.1-1.1,1.1c-0.6,0-1.1-0.5-1.1-1.1c0-0.6,0.5-1.1,1.1-1.1&#10;&#9;&#9;&#9;&#9;&#9;&#9;&#9;&#9;C1065.8,689.8,1066.3,690.3,1066.3,691z" style="fill: rgb(203, 185, 38);"/>
						</g>
					</g>
				</g>
			</g>
			<g>
				<path class="st9" d="M1024.4,668c2.3,0,4.2-1.9,4.2-4.2c0-2.3-1.9-4.2-4.2-4.2c-2.3,0-4.2,1.9-4.2,4.2&#10;&#9;&#9;&#9;&#9;&#9;C1020.2,666.1,1022.1,668,1024.4,668z M1024.4,661.2c1.4,0,2.6,1.2,2.6,2.6c0,1.4-1.1,2.6-2.6,2.6c-1.4,0-2.6-1.2-2.6-2.6&#10;&#9;&#9;&#9;&#9;&#9;C1021.9,662.4,1023,661.2,1024.4,661.2z" style="fill: rgb(203, 185, 38);"/>
			</g>
			<g>
				<path class="st9" d="M1024.4,686.8c-2.3,0-4.2,1.9-4.2,4.2c0,2.3,1.9,4.2,4.2,4.2c2.3,0,4.2-1.9,4.2-4.2&#10;&#9;&#9;&#9;&#9;&#9;C1028.6,688.6,1026.8,686.8,1024.4,686.8z M1024.4,693.6c-1.4,0-2.6-1.2-2.6-2.6c0-1.4,1.2-2.6,2.6-2.6c1.4,0,2.6,1.2,2.6,2.6&#10;&#9;&#9;&#9;&#9;&#9;C1027,692.4,1025.9,693.6,1024.4,693.6z" style="fill: rgb(203, 185, 38);"/>
			</g>
		</g>
	</g>
	<path class="st4" d="M915.3,574.6c0,5.9,4.8,10.7,10.7,10.7h237.6c5.9,0,10.7-4.8,10.7-10.7v-13.2h-259V574.6z" style="fill: rgb(65, 64, 66);"/>
	<path class="st10" d="M1174.3,390.6c0-5.9-4.8-10.7-10.7-10.7H926c-5.9,0-10.7,4.8-10.7,10.7V404h259V390.6z" style="fill: rgb(241, 95, 76);"/>
	<path d="M 915.299988 404 H 1174.299988 V 561.399994 H 915.299988 V 404 Z" class="st1" style="fill: rgb(255, 255, 255);"/>
	<path class="st11" d="M1100.4,510.7c-5.1-6.5-17.5-8.8-17.5-8.8c-9.3-2.9-17.7-6.2-20.6-8.2l-3-4.5v-8.4l0,0&#10;&#9;&#9;c2.9-3.2,5.4-7.7,6.4-13.7c0,0,7.6-2,7.1-14.3c0,0,0.3-5.4-3.9-3.9c8-26.6-7.8-35.7-7.8-35.7l-1.2,1.9c-15.6-6.7-26.5-0.3-26.5-0.3&#10;&#9;&#9;l-5-3l0.2,4.3c0,0-12.1,0.4-7.7,0.3c4.4,0,5.1,2.2,5.1,2.2c-10.5,9.8-9.2,23-7.5,29.9c-2.4,0.3-2.2,4.1-2.2,4.1&#10;&#9;&#9;c-0.4,12.2,7.1,14.3,7.1,14.3c1,6.1,3.5,10.5,6.5,13.7l0,0v8.4l-3,4.5c-2.9,2-11.3,5.3-20.6,8.2c0,0-12.4,2.3-17.5,8.8&#10;&#9;&#9;c0,0-7,5.8-7,50.7v0h125.6v0C1109.1,529.8,1100.4,510.7,1100.4,510.7z M1068.1,449.2c0,0,0-0.2,0.1-0.5&#10;&#9;&#9;C1068.2,448.9,1068.2,449,1068.1,449.2C1068.2,449.2,1068.1,449.2,1068.1,449.2z" style="fill: rgb(24, 191, 200);"/>
	<g>
		<path class="st4" d="M1044.8,533.7c-27,0-48.9-22-48.9-49c0-27,22-48.9,48.9-48.9c27,0,49,22,49,48.9&#10;&#9;&#9;&#9;C1093.7,511.7,1071.8,533.7,1044.8,533.7z M1044.8,442.8c-23.1,0-42,18.8-42,42c0,23.1,18.8,42,42,42c23.1,0,42-18.8,42-42&#10;&#9;&#9;&#9;C1086.7,461.6,1067.9,442.8,1044.8,442.8z" style="fill: rgb(65, 64, 66);"/>
	</g>
	<path class="st4" d="M1031.2,466.3c0-3.4,2.4-4.8,5.4-3.1l31.9,18.4c3,1.7,3,4.5,0,6.2l-31.9,18.4c-3,1.7-5.4,0.3-5.4-3.1V466.3z" style="fill: rgb(65, 64, 66);"/>
	<path class="st12" d="M1161.9,571.1H954.8l0.1,4.5h207c1.2,0,2.3-1,2.3-2.3C1164.2,572.1,1163.2,571.1,1161.9,571.1z" style="fill: rgb(0, 172, 194);"/>
	<path class="st13" d="M1134.8,391.9c0,2.6-2.1,4.6-4.6,4.6s-4.6-2.1-4.6-4.6c0-2.5,2.1-4.6,4.6-4.6S1134.8,389.3,1134.8,391.9z" style="fill: rgb(215, 85, 68);"/>
	<path class="st13" d="M1149.8,391.9c0,2.6-2.1,4.6-4.6,4.6c-2.5,0-4.6-2.1-4.6-4.6c0-2.5,2.1-4.6,4.6-4.6&#10;&#9;&#9;C1147.7,387.3,1149.8,389.3,1149.8,391.9z" style="fill: rgb(215, 85, 68);"/>
	<path class="st13" d="M1164.8,391.9c0,2.6-2.1,4.6-4.6,4.6c-2.5,0-4.6-2.1-4.6-4.6c0-2.5,2.1-4.6,4.6-4.6&#10;&#9;&#9;C1162.7,387.3,1164.8,389.3,1164.8,391.9z" style="fill: rgb(215, 85, 68);"/>
	<path class="st14" d="M927.6,571.1c-1.2,0-2.2,1-2.2,2.2c0,1.2,1,2.2,2.2,2.2h26.9l-0.1-4.4H927.6z" style="fill: rgb(2, 144, 163);"/>
	<path class="st1" d="M959.1,573.3c0,2.5-2,4.5-4.5,4.5c-2.5,0-4.5-2-4.5-4.5c0-2.5,2-4.5,4.5-4.5&#10;&#9;&#9;C957.1,568.8,959.1,570.8,959.1,573.3z" style="fill: rgb(255, 255, 255);"/>
</g>
<g>
	<path class="st4" d="M905.6,807.5c0,8.6-7,15.6-15.6,15.6H524.1c-8.6,0-15.6-7-15.6-15.6V176.1c0-8.6,7-15.6,15.6-15.6H890&#10;&#9;&#9;c8.6,0,15.6,7,15.6,15.6V807.5z" style="fill: rgb(65, 64, 66);"/>
	<path d="M 541.900024 210.699997 H 872.200012 V 245.899998 H 541.900024 V 210.699997 Z" class="st15" style="fill: rgb(28, 168, 176);"/>
	<path d="M 541.900024 245.899994 H 872.200012 V 726.699982 H 541.900024 V 245.899994 Z" class="st11" style="fill: rgb(24, 191, 200);"/>
	<path class="st16" d="M780.4,773.7c0,10.8-8.8,19.5-19.5,19.5H653.3c-10.8,0-19.5-8.8-19.5-19.5l0,0c0-10.8,8.7-19.5,19.5-19.5&#10;&#9;&#9;h107.5C771.6,754.1,780.4,762.9,780.4,773.7L780.4,773.7z" style="fill: rgb(40, 40, 42);"/>
	<path class="st16" d="M755.5,186.6c0,5.4-4.4,9.8-9.8,9.8h-77.2c-5.4,0-9.8-4.4-9.8-9.8l0,0c0-5.4,4.4-9.8,9.8-9.8h77.2&#10;&#9;&#9;C751.1,176.9,755.5,181.2,755.5,186.6L755.5,186.6z" style="fill: rgb(40, 40, 42);"/>
	<g>
		<g>
			<path class="st15" d="M707.1,701.4c-26.3,0-47.8-21.4-47.8-47.8c0-26.3,21.4-47.8,47.8-47.8c26.3,0,47.8,21.4,47.8,47.8&#10;&#9;&#9;&#9;&#9;C754.9,679.9,733.4,701.4,707.1,701.4z M707.1,612.6c-22.6,0-40.9,18.4-40.9,40.9c0,22.6,18.4,40.9,40.9,40.9&#10;&#9;&#9;&#9;&#9;c22.6,0,40.9-18.4,40.9-40.9C748,631,729.7,612.6,707.1,612.6z" style="fill: rgb(28, 168, 176);"/>
		</g>
		<path class="st15" d="M693.8,635.6c0-3.3,2.4-4.7,5.2-3l31.1,18c2.9,1.7,2.9,4.4,0,6.1l-31.1,18c-2.9,1.7-5.2,0.3-5.2-3V635.6z" style="fill: rgb(28, 168, 176);"/>
	</g>
	<path d="M 573.299988 219.899994 H 578.099988 V 235.499994 H 573.299988 V 219.899994 Z" class="st1" style="fill: rgb(255, 255, 255);"/>
	<path d="M 566.5 222.100006 H 571.3 V 235.500006 H 566.5 V 222.100006 Z" class="st1" style="fill: rgb(255, 255, 255);"/>
	<path d="M 559.599976 224.100006 H 564.399976 V 235.400006 H 559.599976 V 224.100006 Z" class="st1" style="fill: rgb(255, 255, 255);"/>
	<path d="M 552.700012 226.199997 H 557.500012 V 235.499997 H 552.700012 V 226.199997 Z" class="st1" style="fill: rgb(255, 255, 255);"/>
	<g>
		<path class="st1" d="M857.2,236.6h-29v-16.4h29V236.6z M829.5,235.3h26.5v-13.9h-26.5V235.3z" style="fill: rgb(255, 255, 255);"/>
	</g>
	<g>
		<path d="M 858.900024 224.399994 H 861.400024 V 232.399994 H 858.900024 V 224.399994 Z" class="st1" style="fill: rgb(255, 255, 255);"/>
	</g>
	<g>
		<path d="M 831.400024 223.100006 H 835.200024 V 233.700006 H 831.400024 V 223.100006 Z" class="st1" style="fill: rgb(255, 255, 255);"/>
	</g>
	<g>
		<path d="M 837.599976 223.100006 H 841.399976 V 233.700006 H 837.599976 V 223.100006 Z" class="st1" style="fill: rgb(255, 255, 255);"/>
	</g>
	<g>
		<path d="M 843.799988 223.100006 H 847.599988 V 233.700006 H 843.799988 V 223.100006 Z" class="st1" style="fill: rgb(255, 255, 255);"/>
	</g>
	<g>
		<path d="M 849.900024 223.100006 H 853.700024 V 233.700006 H 849.900024 V 223.100006 Z" class="st1" style="fill: rgb(255, 255, 255);"/>
	</g>
	<g>
		<g>
			<path class="st17" d="M724.1,923.1l-25,43c0,0,0.5,5.7,2.8,13.9H798l41.7-159l-0.2-1.1c-2.9-17.8-19.7-29.9-37.5-27&#10;&#9;&#9;&#9;&#9;c-17.8,2.9-29.9,19.7-26.9,37.5l-23.7-144.6c-2.9-17.8-19.7-29.8-37.5-26.9c-17.8,2.9-29.9,19.7-27,37.5L724.1,923.1z" style="fill: rgb(230, 190, 128);"/>
			<path class="st18" d="M798,980h199.8c-0.1-1.4-0.2-2.8-0.5-4.3l-5.4-33.2l-19.3-118.2l-0.7-4.2c-2.9-17.8-19.7-29.9-37.5-26.9&#10;&#9;&#9;&#9;&#9;c-17.8,2.9-29.9,19.7-26.9,37.5l-2.1-12.6c-2.9-17.8-19.7-29.9-37.5-26.9c-17.8,2.9-29.8,19.7-26.9,37.5l-1.2-7.6L798,980z" style="fill: rgb(209, 173, 116);"/>
			<path class="st19" d="M724.8,727l21.8-3.6L741,689c0,0-4.6-16.8-24.6-13.6c-19.9,3.3-19,20.7-19,20.7l5.6,34.4L724.8,727z" style="fill: rgb(194, 161, 110);"/>
		</g>
		<path class="st19" d="M672.2,875.5c-0.5-16.8-16.4-35-16.4-35c-12.3-8.9-21.5,1.7-25.4,7.7l30.9,53.6&#10;&#9;&#9;&#9;C676.7,896.7,672.2,875.5,672.2,875.5z" style="fill: rgb(194, 161, 110);"/>
		<path class="st17" d="M741.9,926.5l-27.9-50c0,0-25.2-44.2-49.7-49.7c0,0-29.2-6.5-34.3,20.8l0.4,0.6c3.9-6,13-16.5,25.4-7.7&#10;&#9;&#9;&#9;c0,0,15.9,18.2,16.4,35c0,0,4.5,21.2-10.8,26.3l37.8,65.4L741.9,926.5z" style="fill: rgb(230, 190, 128);"/>
	</g>
	<g>
		<g>
			<path class="st2" d="M584.5,510.2c0.5-2,1.2-3.5,2.1-4.7c-2.7,0.9-6.1,3.1-7.4,8.7c-2.1,8.9,3.7,17,14.8,20.6l109.8,45.8v-7.2&#10;&#9;&#9;&#9;&#9;l-104.5-42.7C588.2,527.2,582.5,519.1,584.5,510.2z" style="fill: rgb(192, 73, 33);"/>
			<path class="st1" d="M591.7,505.1c-0.5-0.1-1-0.1-1.6-0.1c-0.5,0-1.9,0.1-3.5,0.6c-0.9,1.2-1.6,2.7-2.1,4.7&#10;&#9;&#9;&#9;&#9;c-2.1,8.9,3.7,17,14.8,20.6l104.5,42.7v-20.9L591.7,505.1z" style="fill: rgb(255, 255, 255);"/>
			<path d="M 842.7000122070312 517.4000244140625 L 703.7999877929688 579.7000122070312 L 703.7999877929688 589.4000244140625 L 842.7000122070312 527 Z" class="st20" style="fill: rgb(192, 74, 37);"/>
			<path d="M 842.7000122070312 496.5 L 703.7999877929688 553.4000244140625 L 703.7999877929688 544.7000122070312 L 842.7000122070312 487.79998779296875 Z" class="st21" style="fill: rgb(182, 70, 34);"/>
			<path d="M 835.5999755859375 519.9000244140625 L 703.7999877929688 579.7000122070312 L 703.7999877929688 553.2000122070312 L 835.5999755859375 499.20001220703125 Z" class="st22" style="fill: rgb(222, 223, 224);"/>
			<path d="M 835.5999755859375 515.5 L 703.7999877929688 573.5 L 703.7999877929688 580.7000122070312 L 842.7000122070312 518.4000244140625 Z" class="st23" style="fill: rgb(162, 62, 30);"/>
			<path class="st24" d="M591.7,505.1c-0.5-0.1-1-0.1-1.6-0.1c-0.5,0-1.9,0.1-3.5,0.6c-2.7,0.9-6.1,3.1-7.4,8.7&#10;&#9;&#9;&#9;&#9;c-2.1,8.9,3.7,17,14.8,20.6l102.6,43.5v-0.2l-1.2-0.5l1.2,0.5v-6.1v-22.5l-0.3-0.1l0.3,0.1v0L591.7,505.1z" style="fill: none;"/>
			<path class="st25" d="M738.5,442.9c-2.5-0.3-4.8-0.2-6.9,0.2L584.9,497c0,0-8.7,2.7-10.3,12.8c2.4-10.3,11.5-13.1,17.2-11.8&#10;&#9;&#9;&#9;&#9;l112.1,47.8l138.9-57.9L738.5,442.9z" style="fill: rgb(126, 44, 10);"/>
			<path class="st3" d="M593.9,534.9c-11.1-3.7-16.8-11.8-14.8-20.6c1.3-5.6,4.7-7.8,7.4-8.7c1.6-0.5,3-0.6,3.5-0.6&#10;&#9;&#9;&#9;&#9;c0.5,0,1.1,0,1.6,0.1l112.1,48.3v-8.7l-109.6-46.5l-0.6-0.2c-7.7-1.7-18.7,2.6-21.5,14.6c-2.5,10.5,2.6,23.6,19.3,29.1&#10;&#9;&#9;&#9;&#9;l112.4,47.7v-8.7L593.9,534.9z" style="fill: rgb(223, 84, 41);"/>
		</g>
		<g>
			<path class="st26" d="M584.5,462.5c0.5-2,1.2-3.5,2.1-4.7c-2.7,0.9-6.1,3.2-7.4,8.7c-2.1,8.9,3.7,17,14.8,20.6L703.8,533v-7.2&#10;&#9;&#9;&#9;&#9;l-104.5-42.7C588.2,479.5,582.5,471.4,584.5,462.5z" style="fill: rgb(44, 45, 45);"/>
			<path class="st1" d="M591.7,457.3c-0.5-0.1-1-0.1-1.6-0.1c-0.5,0-1.9,0.1-3.5,0.6c-0.9,1.2-1.6,2.7-2.1,4.7&#10;&#9;&#9;&#9;&#9;c-2.1,8.9,3.7,17,14.8,20.6l104.5,42.7v-20.9L591.7,457.3z" style="fill: rgb(255, 255, 255);"/>
			<path d="M 842.7000122070312 469.6000061035156 L 703.7999877929688 532 L 703.7999877929688 541.7000122070312 L 842.7000122070312 479.29998779296875 Z" class="st27" style="fill: rgb(49, 49, 50);"/>
			<path d="M 842.7000122070312 448.79998779296875 L 703.7999877929688 505.6000061035156 L 703.7999877929688 497 L 842.7000122070312 440.1000061035156 Z" class="st28" style="fill: rgb(51, 51, 52);"/>
			<path d="M 835.5999755859375 472.1000061035156 L 703.7999877929688 532 L 703.7999877929688 505.5 L 835.5999755859375 451.5 Z" class="st22" style="fill: rgb(222, 223, 224);"/>
			<path d="M 835.5999755859375 467.79998779296875 L 703.7999877929688 525.7999877929688 L 703.7999877929688 533 L 842.7000122070312 470.6000061035156 Z" class="st29" style="fill: rgb(36, 35, 37);"/>
			<path class="st24" d="M591.7,457.3c-0.5-0.1-1-0.1-1.6-0.1c-0.5,0-1.9,0.1-3.5,0.6c-2.7,0.9-6.1,3.2-7.4,8.7&#10;&#9;&#9;&#9;&#9;c-2.1,8.9,3.7,17,14.8,20.6l102.6,43.5v-0.2l-1.2-0.5l1.2,0.5v-6.1v-22.5l-0.3-0.1l0.3,0.1v0L591.7,457.3z" style="fill: none;"/>
			<path class="st30" d="M738.5,395.2c-2.5-0.3-4.8-0.2-6.9,0.2l-146.7,53.9c0,0-8.7,2.7-10.3,12.8c2.4-10.3,11.5-13.1,17.2-11.8&#10;&#9;&#9;&#9;&#9;L703.8,498l138.9-57.9L738.5,395.2z" style="fill: rgb(25, 24, 26);"/>
			<path class="st4" d="M593.9,487.1c-11.1-3.7-16.8-11.8-14.8-20.6c1.3-5.6,4.7-7.8,7.4-8.7c1.6-0.5,3-0.6,3.5-0.6&#10;&#9;&#9;&#9;&#9;c0.5,0,1.1,0,1.6,0.1l112.1,48.3V497l-109.6-46.5l-0.6-0.2c-7.7-1.7-18.7,2.6-21.5,14.6c-2.5,10.5,2.6,23.6,19.3,29.1l112.4,47.7&#10;&#9;&#9;&#9;&#9;V533L593.9,487.1z" style="fill: rgb(65, 64, 66);"/>
		</g>
		<g>
			<path class="st31" d="M584.5,414.7c0.5-2,1.2-3.5,2.1-4.7c-2.7,0.9-6.1,3.2-7.4,8.7c-2.1,8.9,3.7,17,14.8,20.6l109.8,45.8v-7.2&#10;&#9;&#9;&#9;&#9;l-104.5-42.7C588.2,431.7,582.5,423.6,584.5,414.7z" style="fill: rgb(194, 178, 38);"/>
			<path class="st1" d="M591.7,409.6c-0.5-0.1-1-0.1-1.6-0.1c-0.5,0-1.9,0.1-3.5,0.6c-0.9,1.2-1.6,2.7-2.1,4.7&#10;&#9;&#9;&#9;&#9;c-2.1,8.9,3.7,17,14.8,20.6l104.5,42.7v-20.9L591.7,409.6z" style="fill: rgb(255, 255, 255);"/>
			<path d="M 842.7000122070312 421.8999938964844 L 703.7999877929688 484.20001220703125 L 703.7999877929688 493.8999938964844 L 842.7000122070312 431.6000061035156 Z" class="st32" style="fill: rgb(220, 199, 40);"/>
			<path d="M 842.7000122070312 401 L 703.7999877929688 457.8999938964844 L 703.7999877929688 449.20001220703125 L 842.7000122070312 392.29998779296875 Z" class="st33" style="fill: rgb(216, 196, 40);"/>
			<path d="M 835.5999755859375 424.3999938964844 L 703.7999877929688 484.20001220703125 L 703.7999877929688 457.70001220703125 L 835.5999755859375 403.70001220703125 Z" class="st22" style="fill: rgb(222, 223, 224);"/>
			<path d="M 835.5999755859375 420 L 703.7999877929688 478.1000061035156 L 703.7999877929688 485.20001220703125 L 842.7000122070312 422.8999938964844 Z" class="st34" style="fill: rgb(181, 166, 39);"/>
			<path class="st24" d="M591.7,409.6c-0.5-0.1-1-0.1-1.6-0.1c-0.5,0-1.9,0.1-3.5,0.6c-2.7,0.9-6.1,3.2-7.4,8.7&#10;&#9;&#9;&#9;&#9;c-2.1,8.9,3.7,17,14.8,20.6l102.6,43.5v-0.2l-1.2-0.5l1.2,0.5v-6.1v-22.5l-0.3-0.1l0.3,0.1v0L591.7,409.6z" style="fill: none;"/>
			<path class="st8" d="M738.5,347.5c-2.5-0.3-4.8-0.2-6.9,0.2l-146.7,53.9c0,0-8.7,2.7-10.3,12.8c2.4-10.3,11.5-13.1,17.2-11.8&#10;&#9;&#9;&#9;&#9;l112.1,47.8l138.9-57.9L738.5,347.5z" style="fill: rgb(243, 219, 43);"/>
			<path class="st35" d="M593.9,439.4c-11.1-3.7-16.8-11.8-14.8-20.6c1.3-5.6,4.7-7.8,7.4-8.7c1.6-0.5,3-0.6,3.5-0.6&#10;&#9;&#9;&#9;&#9;c0.5,0,1.1,0,1.6,0.1l112.1,48.3v-8.7l-109.6-46.5l-0.6-0.2c-7.7-1.7-18.7,2.6-21.5,14.6c-2.5,10.5,2.6,23.6,19.3,29.1&#10;&#9;&#9;&#9;&#9;l112.4,47.7v-8.7L593.9,439.4z" style="fill: rgb(228, 206, 41);"/>
		</g>
	</g>
	<path class="st3" d="M696.5,391.5l-48.6-17.1v15.8l0,0c0,10.9,27.8,19.7,62,19.7c34.3,0,62-8.8,62-19.7l0,0v-16.4L727.3,391&#10;&#9;&#9;C718.9,394.2,705,394.5,696.5,391.5z" style="fill: rgb(223, 84, 41);"/>
	<path class="st36" d="M647.9,335.4v39l48.6,17.1c8.5,3,22.4,2.8,30.8-0.5l44.7-17.2v-38.3H647.9z" style="fill: rgb(188, 72, 32);"/>
	<path class="st3" d="M727.3,366.7c-8.4,3.3-22.3,3.5-30.8,0.5l-87.6-30.8c-8.5-3-8.7-8.3-0.4-11.8l88.3-37.1&#10;&#9;&#9;c8.3-3.5,22-3.7,30.5-0.5l88,34c8.4,3.3,8.4,8.6,0,11.8L727.3,366.7z" style="fill: rgb(223, 84, 41);"/>
	<g>
		<g>
			<path class="st37" d="M822.5,366.8c-2.4,0-4.4-2-4.4-4.4v-24.6c0-6.3-9.3-6.4-9.7-6.4H712c-2.4,0-4.4-2-4.4-4.4&#10;&#9;&#9;&#9;&#9;c0-2.4,2-4.4,4.4-4.4h96.5c6.4,0,18.5,3.2,18.5,15.2v24.6C826.9,364.8,825,366.8,822.5,366.8z" style="fill: rgb(45, 58, 70);"/>
		</g>
	</g>
	<path class="st37" d="M835.4,391.8c-3.2-7.1-3.6-16.3-3.6-16.3c-0.1-10.6-9.2-9.8-9.2-9.8s-7.9-0.7-8.1,9.8c0,0-0.4,9.2-3.7,16.3&#10;&#9;&#9;c0,0-5,5.8,0,7.1h12.8h11.7C840.3,397.6,835.4,391.8,835.4,391.8z" style="fill: rgb(45, 58, 70);"/>
	<path class="st38" d="M830.6,365.7c0,4.5-3.6,8.1-8.1,8.1c-4.5,0-8.1-3.6-8.1-8.1c0-4.5,3.6-8.1,8.1-8.1&#10;&#9;&#9;C827,357.6,830.6,361.2,830.6,365.7z" style="fill: rgb(53, 67, 80);"/>
</g>
</svg>